<?xml version="1.0" encoding="UTF-8" standalone="no"?>
<svg xmlns="http://www.w3.org/2000/svg" xmlns:xlink="http://www.w3.org/1999/xlink" version="1.1" width="700" height="700" viewBox="587.5 152 700 700"><g id="document" fill="#ffffff" fill-rule="nonzero" font-family="none" font-weight="none" font-size="none"><rect x="587.5" y="108.57143" transform="scale(1,1.4)" width="700" height="500" id="Shape-1-1"/></g><g fill="none" fill-rule="nonzero" stroke="none" stroke-width="1" stroke-linecap="butt" stroke-linejoin="miter" stroke-miterlimit="10" font-family="none" font-weight="none" font-size="none"><g id="stage"><g id="layer1-1"><g id="Group-1"><g id="Group-1-1"><g id="Group-1-2"><path d="M932.15376,276.4631c4.37776,-0.35659 13.93462,-0.1598 18.43609,0.04163c33.68657,1.6933 66.57183,10.89172 96.24616,26.92281c43.78328,23.71591 78.50736,61.22224 98.77947,106.69375c3.20812,7.19163 6.41058,15.14471 8.70772,22.71608c6.00291,-6.43549 12.0508,-12.65511 17.26083,-19.78209c7.33002,-10.0278 17.24396,-30.13511 15.22518,-42.64266c-0.83507,-5.16667 -3.44428,-9.40519 -7.70396,-12.45751c-11.86523,-8.50571 -31.26855,-6.41554 -44.78422,-3.86074c-3.81543,0.72126 -7.68992,2.109 -11.50254,2.59893c-1.36084,0.17484 -2.79479,-0.18243 -3.83512,-1.09596c-0.75071,-0.65971 -1.29899,-1.62693 -1.29899,-2.64503c0,-0.74432 0.35989,-1.45716 0.88286,-1.97379c3.67204,-3.63557 30.05109,-6.25475 35.88249,-6.25644c11.35913,-0.00309 24.18315,1.96086 32.51411,10.3859c5.37873,5.44212 7.63649,12.45413 7.54088,20.01623c-0.06749,5.29625 -1.87537,9.8344 -3.51739,14.75597c-1.58297,4.73633 -3.1828,9.52578 -5.34778,14.03385c-6.72269,13.99674 -17.92718,25.8398 -28.92642,36.57537c1.32429,5.01263 2.38709,9.31551 3.47522,14.3793c4.42838,-3.84218 8.25224,-6.88187 12.59346,-11.06473c11.28322,-11.0889 20.80071,-23.84156 28.21789,-37.81356c7.45655,-14.01165 13.00395,-27.9963 7.74333,-43.67648c-3.26716,-9.7394 -9.60467,-16.12121 -18.59075,-20.82437c-23.83169,-12.47409 -52.40102,-7.03168 -76.12586,2.77462c-2.01034,0.83175 -4.43118,-0.56583 -4.86418,-2.74594c-0.17995,-0.8753 0.03092,-1.78631 0.57358,-2.49493c2.16216,-2.83899 19.19805,-7.79962 23.31715,-8.76628c4.55491,-1.06139 9.15479,-1.90605 13.78841,-2.53119c18.05371,-2.3572 39.87786,0.8857 54.55195,12.31163c8.45749,6.58616 14.30577,15.46488 15.62724,26.21703c1.04594,8.54366 0.37676,17.21014 -1.97099,25.49154c-5.05538,17.99298 -20.98064,40.51059 -33.84684,53.93421c-6.41622,6.69578 -13.87556,11.78459 -19.24024,18.6375c0.23056,1.08669 0.43581,2.17871 0.61295,3.27522c9.01701,58.83244 -5.63739,118.84207 -40.76073,166.89957c-29.3538,40.10275 -71.09017,69.43703 -118.77321,83.47734c-8.49124,2.53541 -17.77535,4.3934 -26.42404,6.42566c-1.85288,0.43569 -4.45088,0.49471 -6.2166,0.88261c-1.99628,0.43569 -3.08721,0.95288 -5.26062,1.29581c-7.69834,1.00068 -15.46416,1.35485 -23.22154,1.0597c-6.36,-0.20801 -18.2539,-0.34856 -24.19721,-1.04003c-54.0076,-6.06306 -104.14835,-30.96741 -141.60537,-70.33369c-0.0776,0.0225 -0.15492,0.04497 -0.23225,0.06747c-32.20511,8.13466 -66.95589,8.25272 -97.28507,-6.65615c-6.99481,-3.4377 -17.99144,-19.72672 -20.14877,-27.14461c-3.13361,-10.77407 2.03706,-25.14608 7.46475,-34.61592c2.93571,-5.05676 6.19033,-9.92238 9.74414,-14.56594c8.7918,-11.65951 18.81595,-22.2745 28.81761,-32.88245c3.95067,-4.19044 8.30173,1.58645 4.71938,5.62372c-14.40727,16.23449 -48.64228,48.9896 -43.85708,72.8511c0.49331,2.46795 1.32705,4.85438 2.47733,7.09464c1.55067,3.01045 10.9145,15.91517 13.9196,17.33747c17.62577,8.33987 41.67396,12.65174 60.9589,11.07485c10.06127,-0.82359 19.07913,-2.64783 27.70054,-4.4496c-2.37643,-2.62254 -4.65527,-5.33504 -6.83179,-8.12344c-3.15019,0.80392 -6.55315,1.15527 -9.74046,1.7034c-12.73825,2.19529 -23.2747,2.0435 -36.0273,0.12367c-13.37932,-1.43635 -31.54466,-7.04404 -36.86208,-21.01128c-8.18704,-21.50319 10.87863,-47.47567 23.37311,-63.54261c1.54867,-1.9901 3.76031,-5.2198 5.98547,-6.21203c1.98166,-0.88092 4.07775,0.81515 4.70251,2.70688c-0.10432,1.61626 -1.13225,3.41803 -2.15204,4.66044c-17.05472,20.77235 -48.5023,64.22285 -3.27757,74.58935c18.23001,4.17695 30.46187,3.83965 49.04052,0.53406c-27.5847,-37.13164 -42.951,-81.91167 -43.97502,-128.15084c-1.57342,-59.70325 20.73463,-117.56902 61.98094,-160.77384c32.20876,-33.97111 74.23278,-57.02833 120.19451,-65.9471c6.10863,-1.22153 12.17058,-2.66985 18.35934,-3.31562c5.63963,-0.58846 11.32259,-0.65754 16.98837,-0.77246zM766.5227,634.02312c18.51848,-4.25567 39.25536,-9.40799 57.16962,-15.62284c0.69729,-2.25431 17.97301,-24.14541 20.54119,-26.63865l0.01321,-34.13243c-3.76483,-4.45805 -7.56761,-8.88152 -11.40778,-13.27295c-1.62879,-1.88413 -4.11516,-4.5955 -5.54349,-6.54708l-0.00731,-43.28662c-2.43547,-1.02822 -4.3429,-2.11631 -5.41498,-4.72424c-1.86384,-4.5345 0.12906,-9.45436 4.9294,-10.98152c2.31821,-0.7432 4.84056,-0.49895 6.97322,0.67517c1.93246,1.06786 3.31693,2.90954 3.80502,5.06239c1.16882,5.03455 -1.55345,8.06496 -5.80468,10.07979l0.03739,27.01784c0.00113,3.9119 0.21145,10.92276 -0.18866,14.60193c3.48759,3.95743 6.94481,7.941 10.37195,11.95071c1.94905,2.26192 5.02388,5.64677 6.69008,7.99665c0.1805,11.0861 -0.45801,25.94718 0.18895,36.59758c-5.66411,7.61465 -12.4689,16.03322 -18.49572,23.42021c6.91275,-2.08285 13.85392,-4.75601 20.70961,-7.06092c2.34522,-0.78987 6.33243,-2.41173 8.58402,-3.00201c-0.01125,-17.94743 0.36581,-37.6629 -0.05146,-55.52516c-3.9279,-1.41641 -6.04256,-4.07969 -6.03496,-8.31315c0.01632,-9.01812 12.23666,-11.71573 15.68713,-3.11332c1.88409,4.70232 -0.21116,9.62781 -5.09024,11.34862c-0.07367,17.85017 0.22719,36.17426 -0.06664,53.95303c16.41956,-6.07149 32.72132,-12.45498 48.896,-19.15329c9.7129,-4.03079 19.23573,-8.34829 28.87976,-12.37908c-3.91103,-5.74543 -8.7021,-11.97713 -12.82878,-17.63542l-22.30496,-30.73017l-16.74798,-23.03905c-2.31625,-3.15493 -6.34199,-8.90147 -8.84915,-11.76716c0.17152,16.91894 -0.221,34.03097 -0.03908,51.02523c0.16196,12.20904 0.23225,24.41946 0.21087,36.6299c0.01125,5.32379 0.00872,10.6504 0.08941,15.97139c0.02923,1.92546 -0.90029,3.74409 -3.047,3.60917c-2.59939,-0.16304 -2.9143,-2.48482 -2.94242,-4.56767c-0.09925,-7.33077 -0.03205,-14.66152 -0.0762,-21.99229c-0.14396,-15.49635 -0.21002,-30.99073 -0.1985,-46.48568c-0.01827,-9.05776 0.04245,-18.11525 0.18192,-27.17187c0.07338,-4.90806 0.02419,-9.9533 0.70263,-14.81021c0.2553,-1.82707 2.09047,-2.32825 3.68638,-2.14694c5.16166,3.16954 31.54548,41.03989 36.73919,48.2166l30.87267,42.46557c3.11533,-1.4476 9.77616,-4.30906 12.47818,-5.93094c-8.65993,-11.64546 -17.01902,-24.61765 -25.5215,-36.54503l-0.05904,-19.24661c-0.00562,-3.25134 -0.26991,-6.7655 0.11528,-9.98703c0.08716,-0.72549 0.16589,-1.38097 0.70573,-1.90492c0.47235,-0.4593 0.96159,-0.71397 1.63639,-0.65691c0.58483,0.04946 1.14998,0.37639 1.49582,0.85254c1.36928,1.89425 0.80414,25.87352 0.52859,29.57516c8.42375,11.64601 16.80252,24.10661 24.99571,35.98171c2.08062,-0.93603 4.9879,-2.3555 7.11071,-2.95703c1.41708,0.64368 2.83135,1.3717 3.35712,2.96828c0.24181,0.72802 0.10683,1.42792 -0.26431,2.08567c-1.80789,3.21282 -17.03589,9.37708 -20.89068,11.1423c-24.26497,11.0861 -48.90612,21.33173 -73.87878,30.71723c-32.02937,12.17952 -64.94865,23.30214 -98.22106,31.57174c-2.86565,0.71115 -6.55062,1.53192 -9.4784,1.99011c2.07473,2.40048 5.14592,5.75666 7.00836,8.18526c9.1039,-1.99573 22.68705,-4.8853 31.47772,-7.63995c50.51244,-12.96376 99.67582,-30.70318 146.82607,-52.97935c7.91203,-3.7722 15.77906,-8.16841 23.85979,-11.38685c2.54175,-1.01192 6.5287,2.18124 3.94196,4.73913c-5.35061,5.27882 -14.10895,7.53313 -20.66575,11.20696c-8.87643,4.22194 -18.13244,8.99761 -26.92451,12.82883c-16.95773,7.1846 -34.14347,13.81825 -51.5311,19.88693c-26.29246,9.30118 -52.9732,17.46397 -79.96829,24.46586c-7.05138,1.83549 -14.03724,3.31683 -21.04729,5.03146c39.97177,40.73238 94.37245,64.10479 151.4417,65.06049c58.98033,1.16089 115.89407,-21.71962 157.65294,-63.37396c40.67637,-40.34728 63.76298,-95.12841 64.22971,-152.4115c0.07874,-9.64017 -0.53421,-22.92802 -2.09469,-32.5294c-14.51101,14.77985 -34.12801,28.71392 -51.43663,40.13732c-17.88501,11.68143 -36.07369,22.89259 -54.54633,33.62255c-3.12658,1.83298 -15.84373,10.06828 -18.78194,10.16385c-1.23151,0.03935 -2.53612,-0.29795 -3.39931,-1.23116c-0.64387,-0.6971 -0.85756,-1.60501 -0.74508,-2.53148c0.17152,-1.38773 0.821,-2.26528 1.93442,-3.06948c4.56053,-3.29209 9.49218,-5.33306 14.35074,-7.99694c5.64583,-3.09364 11.15389,-6.51589 16.69287,-9.80067c33.30138,-19.7568 67.2635,-40.54321 94.51136,-68.33292c-0.97565,-5.60151 -2.37867,-10.67794 -3.55114,-16.20074c-4.25968,4.32509 -9.55967,8.66705 -14.25796,12.54774c-30.69214,25.35156 -64.41528,47.35171 -98.05125,68.48497l-11.12295,6.97686c-2.78074,1.75371 -5.90732,4.87434 -9.37972,1.78884c-1.81071,-1.60754 -0.31773,-4.22504 1.32711,-5.37608c4.95415,-3.46524 10.29351,-6.54681 15.46417,-9.71915c8.62901,-5.36372 17.20177,-10.81765 25.71832,-16.36041c31.98551,-20.87945 59.71136,-40.52943 88.05015,-65.89784c-16.85312,-55.48722 -55.10022,-101.98976 -106.29785,-129.24652c-25.37248,-13.60683 -53.22767,-21.96917 -81.90103,-24.58902c-5.33936,-0.51003 -16.40327,-1.17365 -21.97599,-0.89332c-9.85096,0.22381 -18.90704,0.63744 -28.74,2.01037c-48.59431,6.87794 -93.44488,29.94907 -127.29228,65.47879c-40.22033,41.99248 -61.92077,98.3525 -60.24445,156.46703c1.15926,45.74277 16.74768,89.94936 44.53876,126.30521zM861.5514,538.57963c-1.41737,0.06971 -2.68681,0.89835 -3.32086,2.16775c-0.63403,1.26911 -0.53366,2.78164 0.26204,3.95602c0.79599,1.17467 2.16358,1.82876 3.57784,1.71098c2.13575,-0.17764 3.73473,-2.03452 3.59302,-4.17246c-0.14142,-2.13796 -1.97155,-3.76769 -4.11206,-3.66229zM830.87247,490.13843c1.90321,-0.72015 2.91851,-2.79513 2.31934,-4.73942c-0.59944,-1.944 -2.60697,-3.08775 -4.58554,-2.61215c-1.39543,0.33561 -2.48889,1.41837 -2.83809,2.81003c-0.34893,1.39166 0.10432,2.86231 1.1764,3.81604c1.07208,0.95401 2.58561,1.23369 3.92791,0.72548z" id="CompoundPath-1" fill="#fb1e4e"/><path d="M967.32209,407.67189c-3.99537,-2.40724 -7.84174,-5.42049 -11.62062,-8.16614c-1.69825,-1.23454 -4.68142,-3.29603 -4.90073,-5.56526c-0.14058,-1.46025 0.76196,-3.0394 1.63357,-4.15307c5.7105,-7.30996 40.98004,-26.22994 51.2623,-32.2531c4.2681,-2.50027 10.88115,-7.17841 15.05365,-8.99676c0.9419,-0.40982 2.2156,-0.47221 3.23342,-0.60573c16.59164,10.42357 32.97804,21.20608 49.46566,31.79604c3.43304,2.20541 17.31142,10.48541 19.30208,12.68013c0.36832,0.4073 0.64949,1.16651 0.57358,1.71547c-0.30648,2.20681 -14.92714,11.54453 -17.60947,13.36766c2.87634,2.03085 15.19987,9.90552 15.8606,12.74873c0.17995,0.78031 -0.06749,1.54598 -0.49767,2.19838c-2.61484,3.95631 -11.14264,8.69516 -15.22235,11.16929c3.54269,2.04181 15.96183,9.88612 17.02464,13.17681c-0.22774,2.31027 -9.65525,8.04303 -11.98613,9.63428c-7.614,5.18354 -15.27297,10.30579 -22.97131,15.36677c-2.01878,1.223 -3.9982,2.51068 -5.93262,3.86075c-6.25034,4.05272 -23.42398,15.5014 -30.14105,17.07268c-7.02354,-1.79221 -23.17095,-12.30292 -29.97236,-16.61367c-2.00191,-1.35427 -3.90821,-2.52782 -5.96636,-3.78203c-4.86981,-3.13217 -32.92461,-20.99639 -34.40355,-23.16189c-0.48922,-0.71902 -0.74509,-2.04913 -0.4808,-2.88817c0.87444,-2.75465 15.01431,-11.21903 18.18866,-13.22543c-2.69358,-1.73459 -5.5643,-3.57066 -8.28035,-5.23947c-10.54374,-6.47821 -11.22135,-6.13024 -1.42832,-13.07449zM989.31775,443.31405l-5.89887,-4.27956l-0.04499,-11.31489c-2.68795,1.76805 -5.55305,3.7244 -8.29722,5.36229c-1.29337,-0.70526 -2.67109,-1.72757 -3.89697,-2.58488c3.66642,-2.67651 8.30847,-5.66194 12.2195,-8.0332l0.01125,-3.72187c-4.0966,-2.82521 -8.21569,-5.6209 -12.35446,-8.38738c-1.22308,-0.90202 -2.49675,-1.79445 -3.73388,-2.68269l-9.81553,7.06176c-9.79303,6.94427 -9.11542,6.59628 1.42832,13.07449c2.71607,1.66881 5.58677,3.50488 8.28035,5.23947c-3.17437,2.0064 -17.31424,10.47079 -18.18866,13.22544c-0.26431,0.83904 -0.00842,2.16914 0.4808,2.88816c1.47894,2.1655 29.53374,20.02972 34.40355,23.16189c2.05815,1.25421 3.96445,2.42776 5.96636,3.78203c6.80143,4.31075 22.94882,14.82146 29.97236,16.61367c6.71707,-1.57128 23.89073,-13.01996 30.14107,-17.07268c1.93442,-1.35007 3.91384,-2.63773 5.93262,-3.86075c7.69834,-5.06098 15.35732,-10.18323 22.9713,-15.36677c2.33088,-1.59123 11.7584,-7.32401 11.98614,-9.63428c-1.06281,-3.29069 -13.48195,-11.135 -17.02464,-13.17681c4.07973,-2.47413 12.60751,-7.213 15.22235,-11.16929c0.43018,-0.6524 0.67762,-1.41809 0.49767,-2.19838c-0.66074,-2.8432 -12.98428,-10.71787 -15.8606,-12.74872l-3.81825,2.67117c-4.52116,3.08466 -10.65059,6.84618 -14.83716,9.94573c0.11246,0.33899 0.24744,0.75247 0.40769,1.24043c3.60736,3.04671 10.67309,7.01229 14.34511,9.53195c-1.57735,1.09287 -2.46301,1.66207 -4.15564,2.54524c-3.32058,-2.20794 -6.66365,-4.37906 -10.03202,-6.51222c0.03937,4.21378 0.05624,8.42812 0.04779,12.64217c-1.92037,1.21796 -3.84917,2.42326 -5.78641,3.61619c-0.24743,-6.3447 -0.19399,-13.18946 -0.27273,-19.58082c-9.19977,5.667 -20.37897,13.55571 -29.61247,18.65239c-1.16684,-0.56021 -2.24932,-1.23285 -3.33745,-1.92939c-8.82019,-5.64115 -17.86533,-11.13471 -26.44935,-17.1289l-0.9419,0.73335zM1085.41206,393.94442l-64.5896,-41.51548c-7.87266,4.87912 -15.83531,9.61233 -23.88229,14.19743c-8.68805,4.98649 -36.34922,19.80822 -41.76167,26.89557c4.76297,3.7604 10.84459,7.90727 15.84093,11.4366c8.2185,-6.32476 39.54327,-30.29194 48.32411,-28.85897c9.46406,1.5443 41.84603,22.39706 50.54251,28.80022c5.09192,-3.76827 10.26821,-7.42127 15.52603,-10.95538zM990.22591,418.07325c7.92046,-5.49666 16.198,-10.60768 24.28437,-15.85896c1.60827,-1.04396 3.33183,-2.2026 5.1088,-2.91037c3.1828,1.56199 7.88673,4.66746 10.98517,6.60301l19.33865,12.19975c4.61957,-2.67062 11.32539,-7.48704 16.11366,-10.59698c-9.74242,-6.48608 -36.60791,-24.35482 -47.26973,-27.21433c-12.675,3.22407 -32.8965,19.07262 -43.89574,27.24187c4.85294,3.60552 10.34695,7.02606 15.33484,10.53601zM1019.9368,437.15738c8.3619,-5.28304 17.56166,-11.3652 26.0079,-16.37812c-7.99076,-5.468 -17.99466,-11.3028 -26.3172,-16.54565c-8.1229,5.53658 -17.10898,11.01554 -25.40902,16.45513c8.51373,5.58071 17.0865,11.07062 25.71832,16.46862z" id="CompoundPath-1-1" fill="#c0f8dd"/><path d="M1050.01601,423.21939c1.4452,0.9377 4.35527,2.70012 5.60927,3.69406c0.03937,4.21378 0.05624,8.42813 0.04779,12.64218c-1.92037,1.21796 -3.84917,2.42326 -5.78641,3.61619c-0.24743,-6.3447 -0.19399,-13.18946 -0.27273,-19.58082z" id="Path-1" fill="#fb1e4e"/><path d="M989.27276,423.91845l0.04499,19.3956l-5.89887,-4.27956l-0.04499,-11.31489c1.91755,-1.34078 3.88571,-2.60878 5.89887,-3.80115z" id="Path-1-1" fill="#fb1e4e"/><path d="M1050.01601,423.21939c1.65889,-1.0715 3.34025,-2.10899 5.04413,-3.11136c0.11246,0.33899 0.24744,0.75248 0.40769,1.24044c3.60736,3.04671 10.67309,7.01229 14.34511,9.53195c-1.57735,1.09287 -2.46301,1.66207 -4.15564,2.54524c-3.32058,-2.20794 -6.66365,-4.37907 -10.03202,-6.51223c-1.254,-0.99392 -4.16407,-2.75634 -5.60927,-3.69406z" id="Path-1-2" fill="#9ce8d5"/><path d="M983.39918,422.46383l2.92414,-1.82482l3.89134,2.54608l-0.9419,0.73336c-2.01316,1.19237 -3.98132,2.46037 -5.89887,3.80115c-2.68795,1.76805 -5.55305,3.7244 -8.29722,5.36229c-1.29337,-0.70526 -2.67109,-1.72757 -3.89697,-2.58488c3.66642,-2.67651 8.30847,-5.66194 12.2195,-8.0332z" id="Path-1-3" fill="#9ce8d5"/><path d="M1073.71553,407.49113c2.87634,2.03085 15.19987,9.90552 15.8606,12.74873c0.17995,0.78031 -0.06749,1.54598 -0.49767,2.19838c-2.61484,3.95631 -11.14264,8.69516 -15.22235,11.16929c3.54269,2.04181 15.96183,9.88612 17.02464,13.17681c-0.22774,2.31027 -9.65525,8.04303 -11.98613,9.63428c-7.614,5.18354 -15.27297,10.30579 -22.97131,15.36677c-2.01878,1.223 -3.9982,2.51068 -5.93262,3.86075c-6.25034,4.05272 -23.42398,15.5014 -30.14105,17.07268c-7.02354,-1.79221 -23.17095,-12.30292 -29.97236,-16.61367c-2.00191,-1.35427 -3.90821,-2.52782 -5.96636,-3.78203c-4.86981,-3.13217 -32.92461,-20.99639 -34.40355,-23.16189c-0.48922,-0.71902 -0.74509,-2.04913 -0.4808,-2.88817c0.87444,-2.75465 15.01431,-11.21903 18.18866,-13.22543c-2.69358,-1.73459 -5.5643,-3.57066 -8.28035,-5.23947c-10.54374,-6.47821 -11.22135,-6.13024 -1.42832,-13.07449l9.81553,-7.06176c1.23713,0.88824 2.51083,1.78069 3.73389,2.68269c-4.86699,3.64402 -9.77337,7.23098 -14.72189,10.76058c4.98509,2.86118 10.06577,6.18561 14.84561,9.38185c1.22588,0.85731 2.60362,1.87962 3.89697,2.58488l8.34221,5.9526l5.89887,4.27956c8.03011,5.832 21.33211,16.26652 30.48127,18.5526c1.47612,-1.06139 3.25872,-2.18517 4.82202,-3.11669c8.39845,-4.99576 16.71536,-10.90254 25.26564,-15.57814c1.93724,-1.19293 3.86604,-2.39823 5.78641,-3.61619l9.98423,-6.12995c1.69263,-0.88317 2.57829,-1.45237 4.15564,-2.54524c4.32152,-2.13796 10.97675,-6.97603 14.69939,-10.0694c-4.53241,-3.66172 -9.82958,-7.28804 -14.61505,-10.64871zM989.52862,448.89222l0.12933,14.91563c0.02812,1.996 0.23619,5.18859 0.13778,7.0179c6.82672,4.82009 22.63672,14.70706 30.14667,17.65341c10.93738,-4.73098 20.20465,-12.64838 30.07077,-18.01152l-0.16308,-22.20562c-6.60179,3.91554 -13.05456,8.16532 -19.59731,12.16827c-2.61766,1.60221 -6.90826,4.53843 -9.48375,5.75441c-10.42003,-1.2351 -22.60861,-11.03297 -31.24043,-17.2925zM1069.68924,436.07211c-3.61861,2.2085 -10.81648,6.29778 -13.9993,8.59257c0.07029,6.91053 -0.03374,15.03845 0.25024,21.88124c3.4921,-2.61187 7.72083,-5.27797 11.37038,-7.74901c5.96074,-4.08447 11.94959,-8.12426 17.97217,-12.11908c-4.59425,-3.49532 -10.74618,-7.41369 -15.59349,-10.6057zM971.0644,435.71905c-5.64864,3.90936 -11.43505,7.72203 -17.1343,11.57435l29.84585,19.6986l-0.30366,-22.46704c-2.65703,-2.26838 -9.36003,-6.71575 -12.40789,-8.80591z" id="CompoundPath-1-2" fill="#9ce8d5"/><path d="M1055.68994,444.66468c0.07029,6.91053 -0.03374,15.03845 0.25024,21.88124c-1.9035,1.26826 -3.99819,2.73469 -5.92699,3.92172l-0.16308,-22.20562c1.52393,-1.1131 4.22593,-2.73358 5.83983,-3.59736z" id="Path-1-4" fill="#fb1e4e"/><path d="M983.47229,444.52496c1.72355,1.04676 4.46213,3.04951 6.05633,4.36726l0.12933,14.91563c0.02812,1.996 0.23619,5.18859 0.13778,7.0179c-1.59985,-0.78367 -4.45088,-2.78361 -6.01978,-3.83375z" id="Path-1-5" fill="#fb1e4e"/><path d="M1073.71553,407.49113c2.87634,2.03085 15.19987,9.90552 15.8606,12.74873c0.17995,0.78031 -0.06749,1.54598 -0.49767,2.19838c-2.61484,3.95631 -11.14264,8.69516 -15.22235,11.16929c-1.60827,0.78451 -2.66265,1.48498 -4.16689,2.46456c-3.61861,2.2085 -10.81648,6.29778 -13.9993,8.59257c-1.6139,0.86378 -4.31592,2.48424 -5.83983,3.59736c-6.60179,3.91554 -13.05456,8.16532 -19.59731,12.16827c-2.61766,1.60221 -6.90826,4.53843 -9.48375,5.75441c-10.42003,-1.2351 -22.60861,-11.03297 -31.24043,-17.2925c-1.59422,-1.31775 -4.33277,-3.32048 -6.05632,-4.36726c-2.65703,-2.26838 -9.36004,-6.71575 -12.4079,-8.80591c-0.98127,-0.79547 -2.75262,-1.92572 -3.84917,-2.67146c-2.69358,-1.73459 -5.56429,-3.57066 -8.28034,-5.23947c-10.54374,-6.47821 -11.22136,-6.13024 -1.42833,-13.07449l9.81553,-7.06176c1.23713,0.88824 2.51083,1.78069 3.73389,2.68269c-4.86699,3.64402 -9.77337,7.23098 -14.72189,10.76058c4.98509,2.86118 10.06577,6.18561 14.84561,9.38185c1.22588,0.85731 2.60362,1.87962 3.89697,2.58488l8.34221,5.9526l5.89887,4.27956c8.03011,5.832 21.33211,16.26653 30.48127,18.55261c1.47612,-1.06139 3.25872,-2.18518 4.82202,-3.1167c8.39845,-4.99576 16.71536,-10.90254 25.26564,-15.57814c1.93724,-1.19293 3.86604,-2.39823 5.78641,-3.61619l9.98423,-6.12995c1.69263,-0.88317 2.57829,-1.45237 4.15564,-2.54524c4.32152,-2.13796 10.97675,-6.97602 14.69939,-10.06939c-4.53241,-3.66172 -9.82958,-7.28805 -14.61505,-10.64872z" id="Path-1-6" fill="#e2c1f8"/><path d="M983.41043,418.74196c0.97565,0.6108 1.99066,1.21711 2.91289,1.89705l-2.92414,1.82482z" id="Path-1-7" fill="#fb1e4e"/><path d="M971.01943,404.95854c8.2185,-6.32476 39.54327,-30.29194 48.32411,-28.85897c9.46406,1.5443 41.84603,22.39706 50.54251,28.80022l-3.82949,2.60989c-9.74242,-6.48608 -36.60791,-24.35482 -47.26973,-27.21433c-12.675,3.22407 -32.8965,19.07262 -43.89574,27.24187c-1.14997,-0.62429 -2.75543,-1.80457 -3.87166,-2.5787z" id="Path-1-8" fill="#e2c1f8"/><path d="M990.22591,418.07325c7.92046,-5.49666 16.198,-10.60768 24.28437,-15.85896c1.60827,-1.04396 3.33183,-2.2026 5.1088,-2.91037c3.1828,1.56199 7.88673,4.66746 10.98517,6.60301l19.33865,12.19975c-1.47612,1.09736 -2.42085,1.7405 -3.9982,2.67258c-7.99076,-5.468 -17.99466,-11.3028 -26.3172,-16.54565c-8.1229,5.53658 -17.10898,11.01554 -25.40902,16.45513z" id="Path-1-9" fill="#9ce8d5"/><path d="M816.38453,548.63244l0.03401,44.92536c0.00084,7.5472 0.01518,15.09721 -0.02588,22.64441c-0.00843,1.54036 -0.60001,3.03012 -2.2302,3.3899c-0.86459,0.19114 -1.76881,-0.00562 -2.47624,-0.53968c-1.83265,-1.38015 -1.2315,-9.84369 -1.22419,-12.10925l0.03036,-18.38592l-0.00365,-63.65309l-0.00618,-88.89979l-0.00055,-27.9578c0,-4.93167 -0.07536,-10.00137 0.12315,-14.92939c0.08267,-2.05251 2.13406,-5.00841 3.37681,-6.68398c4.68873,-6.32082 11.54809,-8.15911 19.04792,-9.13758c2.78889,-0.36373 8.19939,-0.46604 11.62342,-0.50005c10.97872,-0.10906 25.67388,-1.84112 35.31987,3.94393c1.20565,0.72295 6.49635,6.78741 7.45739,7.93256c9.62967,11.47371 17.98567,24.15048 26.80052,36.26422l70.50647,97.91426c-0.6523,-16.22831 -0.54264,-34.12935 -0.82662,-50.52743c2.05815,1.25421 3.96445,2.42776 5.96636,3.78203c0.07311,6.72501 1.73481,55.23845 -0.07873,57.19988c-0.58201,0.62936 -1.75448,0.79183 -2.5558,0.80308c-1.39458,-0.62261 -2.92132,-2.19361 -3.84637,-3.40623c-25.46526,-33.41484 -48.0795,-69.53793 -74.06295,-102.50863l-0.01096,29.76042c3.82274,5.08713 7.82178,9.91788 11.60768,15.10787c4.57711,-2.48453 9.67327,-1.39222 12.20488,3.3621c1.15279,2.17055 1.36084,4.71777 0.58201,7.04742c-3.59078,10.66474 -21.54074,5.31761 -15.84627,-7.37825c-2.01596,-2.3066 -4.63391,-5.91072 -6.55624,-8.39467c-1.9454,-2.51348 -4.98369,-6.25645 -6.58689,-8.81434c1.16909,-10.38337 -0.56598,-24.58502 0.37732,-35.39311c0.19711,-2.25909 -16.82305,-24.59938 -19.75112,-28.22286c-2.26479,-2.78417 -4.63193,-5.48317 -7.09692,-8.09193c-4.79952,-5.00336 -13.42374,-4.69107 -20.0289,-4.84004c5.23926,7.09099 26.0172,35.97048 30.20152,43.23574c0.50863,0.8829 0.26682,28.15736 -0.14874,30.29194c9.27934,13.01885 19.7455,27.83917 28.51509,41.15204c4.61733,-1.68877 9.2501,-0.87615 11.45163,4.05637c1.033,2.27203 1.09289,4.86732 0.16561,7.18461c-4.19641,10.53601 -20.82629,4.2357 -14.76041,-8.23979c-10.13099,-14.20504 -20.18832,-29.03857 -30.14978,-43.39202c-5.98239,0.27152 -13.69704,0.04413 -19.88214,0.08292l0.00309,43.43503c5.13409,1.60023 8.96049,6.57069 6.73478,12.01648c-4.59539,11.24491 -21.58881,4.67478 -16.62284,-7.17504c1.0077,-2.40499 3.15863,-3.6755 5.45181,-4.53731l-0.03627,-30.09884c-0.00449,-3.27973 -0.59944,-16.03351 1.04678,-17.94181c1.69459,-0.41066 7.0927,-0.147 9.15478,-0.13042l14.71372,-0.00618l0.00423,-26.10797l-31.17041,-43.75322c-6.34339,0.34208 -12.99975,0.15911 -19.32992,0.75135c2.42225,3.836 6.1494,8.8697 8.8337,12.72538l17.41855,25.06343c1.99797,-0.21728 4.83916,-0.55542 6.63751,0.40055c4.9387,2.6248 6.43507,7.76475 3.807,12.47803c-1.02317,1.86446 -2.7768,3.21873 -4.83973,3.73761c-2.34128,0.62092 -4.83437,0.25691 -6.90039,-1.00686c-1.98953,-1.21571 -3.40268,-3.18387 -3.91862,-5.4573c-0.62362,-2.85304 0.24208,-5.06379 1.78935,-7.36478c-9.14691,-13.12566 -18.68183,-26.48152 -27.58356,-39.73817c-0.64218,0.12987 -1.28099,0.27574 -1.91615,0.43709c-4.99296,1.29301 -7.94747,4.77455 -10.4729,9.01672l-0.06326,4.66577c1.51577,1.35456 9.86277,12.64555 11.37712,14.78716c6.09204,8.61477 13.67088,17.65285 19.54305,26.30275c-0.41389,19.05408 0.00084,38.31614 -0.15043,57.38793c-0.05849,7.40806 0.12569,14.93727 -0.09616,22.32846c2.02974,1.2469 3.67316,3.1004 4.25912,5.45366c0.4912,2.03732 0.10348,4.18708 -1.06872,5.92447c-1.26554,1.90352 -3.23173,3.23054 -5.47067,3.69264c-11.21658,2.2785 -14.3693,-14.60249 -2.12646,-16.02114l-0.00984,-77.90057l-26.23651,-35.02714l-0.01041,136.98597c2.14249,1.43355 14.88778,18.8472 17.44078,22.22868c-0.02503,5.74824 0.0686,11.49929 0.04246,17.24753c-0.00985,2.19809 0.17965,4.29782 -2.28814,4.89092c-0.57105,-0.12929 -0.8165,-0.14897 -1.2301,-0.59871c-1.91699,-2.08285 -1.05212,-16.5476 -1.03245,-20.23266c-4.23972,-5.1945 -8.83059,-11.54427 -12.92017,-16.93468zM862.08,513.59939c2.51981,-0.11918 4.4711,-2.24842 4.37018,-4.76808c-0.10065,-2.51968 -2.21645,-4.48615 -4.73739,-4.40352c-2.54737,0.08348 -4.53915,2.22508 -4.43709,4.77061c0.10206,2.54582 2.25862,4.52157 4.8043,4.40099zM926.51357,484.72383c1.55794,-0.38312 2.7782,-1.59235 3.17466,-3.14621c0.39673,-1.55412 -0.09477,-3.19991 -1.27875,-4.28237c-1.18371,-1.08219 -2.86734,-1.42483 -4.38029,-0.89132c-2.18635,0.77102 -3.383,3.12147 -2.71972,5.34235c0.66299,2.22115 2.95281,3.53102 5.20411,2.97755zM920.65208,509.38758c2.82235,-0.73983 4.84393,-2.86511 3.89107,-5.91267c-0.34273,-1.08555 -1.10386,-1.98982 -2.11494,-2.51263c-0.6256,-0.31678 -1.07575,-0.42162 -1.75279,-0.52704c-5.33851,1.02344 -5.34245,7.66694 -0.02334,8.95236zM864.02202,433.33094c2.21278,-0.56358 3.56408,-2.79794 3.03491,-5.01882c-0.52915,-2.22088 -2.7425,-3.60634 -4.97215,-3.1122c-1.47332,0.32663 -2.65646,1.42174 -3.09538,2.8654c-0.43863,1.44366 -0.06522,3.01157 0.97763,4.10275c1.04256,1.09091 2.59236,1.5353 4.05499,1.16287zM844.07775,529.85158c2.02047,-0.54222 3.24044,-2.59529 2.75093,-4.62839c-0.48951,-2.0331 -2.51054,-3.30614 -4.55631,-2.87018c-1.37182,0.29262 -2.47708,1.30621 -2.88617,2.64728c-0.40938,1.34136 -0.0582,2.79907 0.9166,3.80706c0.97509,1.00826 2.42029,1.40795 3.77495,1.04424z" id="CompoundPath-1-3" fill="#fb1e4e"/><path d="M1007.57672,523.43997c1.69263,0.24145 3.3234,1.16567 2.94944,3.10489c-1.59985,8.29517 -2.23248,17.21042 -3.95321,25.42969c3.18562,-0.04695 12.30387,-0.90622 15.13802,1.14318c0.4611,0.33168 0.6523,2.20372 0.35709,2.75465c-2.90164,5.45028 -6.23347,10.77689 -9.3994,16.10068l-9.40784,15.85053c-1.52673,2.57194 -4.63362,8.72214 -7.01792,9.93643c-2.02158,-0.39352 -3.39087,-0.97818 -3.25591,-3.34493c0.16307,-2.8446 0.74791,-5.71451 1.21464,-8.53381c0.91378,-5.57677 1.86412,-11.14512 2.85384,-16.71064c-2.58954,-0.10399 -5.27749,-0.0478 -7.81924,-0.17709c-2.14531,-0.10682 -7.09103,0.37385 -7.68429,-2.24026c-0.15183,-0.6718 -0.17994,-1.47289 0.14903,-2.08285c2.27464,-4.22474 4.90635,-8.48884 7.34689,-12.59721l15.04803,-25.40804c1.29617,-2.17591 1.21183,-2.65207 3.48085,-3.22521zM989.29525,563.14132c19.5439,0.57341 13.71812,-0.27545 11.85399,16.77249c4.3131,-7.39259 8.67961,-14.75709 13.09956,-22.09066c-1.65326,0.0028 -5.14816,-0.17989 -6.60461,0.04217c-12.43319,1.89171 -4.75453,-10.39882 -5.47714,-16.53806c-4.23998,7.3018 -8.5306,14.57326 -12.8718,21.81406z" id="CompoundPath-1-4" fill="#fb1e4e"/><path d="M1052.64492,545.84124c2.35618,0.25242 3.48365,1.47459 3.4921,3.96503c0.04779,17.28716 1.2512,34.59934 0.84349,51.89744c-0.37677,5.78758 0.03092,24.31125 -5.3956,27.75457c-12.08172,7.66807 -31.60874,5.66391 -45.44214,5.51212c-3.22217,-0.46379 -14.10332,0.15179 -16.55509,-1.66965c-10.06859,-7.46568 -18.94782,-19.52434 -26.57587,-29.34833c-1.10218,-1.3717 -2.86509,-3.35898 -1.8782,-5.1692c0.41613,-0.77017 1.15559,-1.31549 2.01596,-1.48695c2.91851,-0.60996 6.93918,6.45658 8.7246,8.57598c6.12943,7.27173 13.14453,17.11542 20.8007,22.63879c11.65436,1.28176 47.00262,2.88113 55.96903,-4.22195c2.68233,-8.635 2.47709,-26.35475 2.36461,-35.67842c-0.12371,-8.47197 -0.2896,-16.94395 -0.50047,-25.41311c-0.13778,-4.61546 -0.70012,-10.69258 -0.07874,-15.29902c0.13215,-0.98465 1.40303,-1.61568 2.2156,-2.05728z" id="Path-1-10" fill="#fb1e4e"/><path d="M1049.99069,475.64612c1.93442,-1.35007 3.91384,-2.63773 5.93262,-3.86075l0.16027,18.45593c0.03937,3.48605 0.17714,7.00666 -0.04217,10.48258c-0.12933,2.01765 -1.03469,2.9385 -3.03942,3.24432c-0.93628,-0.21081 -1.77697,-0.64931 -2.28026,-1.51422c-0.97847,-1.68204 -0.63825,-22.87151 -0.73104,-26.80786z" id="Path-1-11" fill="#fb1e4e"/></g></g></g></g><g id="Layer4-1" opacity="0.8"><g id="Group-28606-1"><g id="Group-1-1-1-1-1-1-1"><g id="Group-1-1-1-1-1-1-1-1"><path d="M934.59914,266.9134c4.56792,-0.37275 14.5399,-0.16704 19.2369,0.04351c35.14982,1.77002 69.46352,11.38522 100.42682,28.14269c45.6851,24.79048 81.91749,63.99623 103.07017,111.52806c3.34747,7.51748 6.68904,15.83092 9.08596,23.74535c6.26366,-6.72708 12.57425,-13.22851 18.0106,-20.67841c7.64841,-10.48216 17.99298,-31.50054 15.88651,-44.5748c-0.87134,-5.40077 -3.59388,-9.83134 -8.0386,-13.02197c-12.38062,-8.8911 -32.62677,-6.70623 -46.72953,-4.03567c-3.98116,0.75394 -8.02394,2.20456 -12.00217,2.71668c-1.41995,0.18276 -2.91619,-0.19069 -4.00171,-1.14561c-0.78331,-0.68961 -1.35541,-1.70064 -1.35541,-2.76488c0,-0.77805 0.37553,-1.52319 0.92121,-2.06323c3.83155,-3.8003 31.35642,-6.53815 37.44112,-6.53992c11.85254,-0.00323 25.23359,2.04971 33.92642,10.85648c5.61237,5.6887 7.96821,13.01844 7.86844,20.92317c-0.07042,5.53623 -1.95683,10.27999 -3.67018,15.42456c-1.65173,4.95093 -3.32105,9.9574 -5.58007,14.66973c-7.0147,14.63093 -18.70587,27.0106 -30.1829,38.2326c1.38181,5.23975 2.49078,9.73759 3.62617,15.03082c4.62074,-4.01627 8.6107,-7.19368 13.14049,-11.56607c11.77333,-11.59134 21.70424,-24.92182 29.44359,-39.5269c7.78044,-14.64652 13.56881,-29.26482 8.07968,-45.65546c-3.40908,-10.18069 -10.02188,-16.85166 -19.39829,-21.76793c-24.86687,-13.03929 -54.67717,-7.35029 -79.43255,2.90033c-2.09767,0.86943 -4.62365,-0.59146 -5.07546,-2.87036c-0.18776,-0.91496 0.03226,-1.86725 0.5985,-2.60797c2.25608,-2.96762 20.03196,-8.15302 24.32998,-9.16348c4.75276,-1.10949 9.55244,-1.99241 14.38734,-2.64588c18.83791,-2.46401 41.61004,0.92584 56.92153,12.86947c8.82486,6.88458 14.92719,16.16559 16.30605,27.40492c1.09138,8.93078 0.39312,17.98994 -2.05661,26.64657c-5.27497,18.80824 -21.89198,42.34613 -35.31705,56.37798c-6.69492,6.99917 -14.47827,12.31854 -20.07598,19.48196c0.24058,1.13592 0.45474,2.27743 0.63958,3.42362c9.40868,61.49814 -5.88227,124.22682 -42.53127,174.46181c-30.62884,41.91981 -74.17813,72.58322 -123.93238,87.2597c-8.86008,2.65029 -18.54747,4.59247 -27.57183,6.71682c-1.93336,0.45543 -4.64422,0.51712 -6.48663,0.92259c-2.083,0.45543 -3.22131,0.99606 -5.48912,1.35452c-8.03273,1.04602 -16.13588,1.41624 -24.23022,1.10772c-6.63626,-0.21744 -19.0468,-0.36435 -25.24827,-1.08715c-56.35353,-6.33778 -108.67226,-32.37054 -147.75631,-73.52051c-0.08097,0.02352 -0.16165,0.047 -0.24234,0.07052c-33.60401,8.50324 -69.86426,8.62665 -101.51086,-6.95773c-7.29864,-3.59347 -18.77294,-20.62054 -21.02398,-28.37454c-3.26973,-11.26224 2.12554,-26.28546 7.78899,-36.18438c3.06323,-5.28589 6.45922,-10.37196 10.1674,-15.22592c9.1737,-12.18781 19.63326,-23.28375 30.06937,-34.37235c4.12227,-4.38031 8.66234,1.65833 4.92438,5.87853c-15.03308,16.97007 -50.75516,51.20932 -45.76211,76.15199c0.51474,2.57977 1.38469,5.07434 2.58494,7.4161c1.61803,3.14685 11.38859,16.63629 14.52423,18.12304c18.39138,8.71775 43.48416,13.22499 63.60678,11.57665c10.49831,-0.8609 19.90787,-2.7678 28.90377,-4.65121c-2.47966,-2.74137 -4.85748,-5.57677 -7.12854,-8.49151c-3.28703,0.84035 -6.83779,1.20762 -10.16356,1.78058c-13.29156,2.29476 -24.2857,2.1361 -37.59223,0.12928c-13.96048,-1.50143 -32.91487,-7.36321 -38.46327,-21.96331c-8.54266,-22.47751 11.35118,-49.6268 24.38838,-66.42173c1.61594,-2.08027 3.92365,-5.45632 6.24546,-6.4935c2.06774,-0.92084 4.25487,0.85209 4.90677,2.82953c-0.10885,1.68949 -1.18143,3.5729 -2.24551,4.87161c-17.79553,21.71354 -50.60911,67.13279 -3.41994,77.969c19.02187,4.36621 31.78506,4.01362 51.17071,0.55826c-28.7829,-38.81408 -44.81668,-85.6231 -45.88518,-133.95737c-1.64177,-62.40841 21.63528,-122.89609 64.67322,-168.05852c33.60782,-35.51035 77.45724,-59.61229 125.41542,-68.93517c6.37397,-1.27687 12.69923,-2.79082 19.15681,-3.46585c5.8846,-0.61512 11.81442,-0.68734 17.72631,-0.80747zM761.77353,640.67451c19.32287,-4.44849 40.9605,-9.83427 59.65291,-16.33071c0.72758,-2.35645 18.7537,-25.23943 21.43344,-27.84565l0.01379,-35.67897c-3.92836,-4.66005 -7.89634,-9.28395 -11.90331,-13.87435c-1.69954,-1.9695 -4.29391,-4.80372 -5.78428,-6.84373l-0.00763,-45.24794c-2.54126,-1.07481 -4.53154,-2.2122 -5.65019,-4.9383c-1.9448,-4.73996 0.13467,-9.88274 5.14352,-11.47909c2.41891,-0.77687 5.05082,-0.52156 7.27612,0.70576c2.0164,1.11625 3.461,3.04138 3.9703,5.29177c1.21959,5.26267 -1.62092,8.43038 -6.05681,10.5365l0.03901,28.24203c0.00118,4.08915 0.22063,11.41768 -0.19686,15.26354c3.63908,4.13674 7.24648,8.3008 10.82249,12.49219c2.03371,2.36441 5.24209,5.90263 6.98067,8.35898c0.18834,11.58841 -0.4779,27.12285 0.19716,38.25582c-5.91015,7.95967 -13.01051,16.75968 -19.29912,24.48138c7.21302,-2.17722 14.4557,-4.9715 21.60918,-7.38085c2.44709,-0.82566 6.6075,-2.521 8.95689,-3.13803c-0.01174,-18.76063 0.3817,-39.36941 -0.05369,-58.04102c-4.09851,-1.48058 -6.30504,-4.26454 -6.29711,-8.68982c0.01703,-9.42673 12.76818,-12.24657 16.36854,-3.25439c1.96593,4.91539 -0.22033,10.06405 -5.31135,11.86283c-0.07687,18.65896 0.23707,37.81332 -0.06953,56.39765c17.13278,-6.34659 34.14265,-13.01931 51.01991,-20.02112c10.1348,-4.21342 20.07127,-8.72655 30.13421,-12.93998c-4.08092,-6.00575 -9.0801,-12.51982 -13.38603,-18.43449l-23.27382,-32.12256l-17.47547,-24.08296c-2.41686,-3.29788 -6.61747,-9.30479 -9.23353,-12.30033c0.17897,17.68554 -0.2306,35.57291 -0.04077,53.33719c0.16899,12.76223 0.24234,25.52591 0.22003,38.28961c0.01174,5.56501 0.00909,11.13297 0.09329,16.69505c0.0305,2.01271 -0.93939,3.91374 -3.17934,3.7727c-2.7123,-0.17042 -3.04089,-2.59741 -3.07023,-4.77463c-0.10356,-7.66293 -0.03345,-15.32583 -0.07952,-22.98876c-0.15021,-16.19849 -0.21914,-32.39493 -0.20712,-48.59195c-0.01906,-9.46816 0.04429,-18.93605 0.18983,-28.40303c0.07657,-5.13045 0.02523,-10.40429 0.73314,-15.48127c0.26639,-1.90986 2.18128,-2.43375 3.8465,-2.24422c5.38587,3.31315 32.91573,42.89941 38.33504,50.4013l32.21369,44.38969c3.25065,-1.51319 10.20081,-4.5043 13.0202,-6.19967c-9.03609,-12.17312 -17.75829,-25.73308 -26.63009,-38.20089l-0.0616,-20.11868c-0.00587,-3.39866 -0.28163,-7.07205 0.12029,-10.43955c0.09094,-0.75836 0.1731,-1.44353 0.73638,-1.99123c0.49287,-0.48011 1.00335,-0.74632 1.70746,-0.68668c0.61023,0.0517 1.19994,0.39345 1.56079,0.89117c1.42875,1.98008 0.83908,27.04585 0.55156,30.91522c8.78966,12.17369 17.53237,25.19888 26.08145,37.61204c2.17099,-0.97844 5.20457,-2.46222 7.41958,-3.09101c1.47863,0.67284 2.95433,1.43385 3.50294,3.10277c0.25231,0.761 0.11148,1.49262 -0.27579,2.18017c-1.88642,3.35839 -17.77587,9.80196 -21.79811,11.64716c-25.31898,11.58841 -51.03047,22.29828 -77.08787,32.10904c-33.42064,12.73137 -67.76984,24.35796 -102.48751,33.00226c-2.99012,0.74337 -6.83517,1.60133 -9.89012,2.08028c2.16485,2.50925 5.36944,6.01749 7.31279,8.55613c9.49935,-2.08616 23.67252,-5.10665 32.84503,-7.98612c52.70656,-13.55115 104.00547,-32.09435 153.20379,-55.37985c8.2557,-3.94312 16.46445,-8.53851 24.89619,-11.90278c2.65215,-1.05777 6.81229,2.28006 4.11319,4.95385c-5.58303,5.518 -14.72181,7.87446 -21.56341,11.71475c-9.26199,4.41323 -18.92006,9.40529 -28.09403,13.4101c-17.69432,7.51013 -35.62657,14.44436 -53.76947,20.78801c-27.43453,9.72262 -55.27421,18.25526 -83.44189,25.57441c-7.35767,1.91866 -14.64698,3.46712 -21.96153,5.25944c41.70803,42.57797 98.47173,67.00938 158.01991,68.00839c61.54227,1.21349 120.92819,-22.70374 164.50094,-66.24544c42.44324,-42.17542 66.53266,-99.43869 67.01966,-159.31728c0.08216,-10.07697 -0.55741,-23.96689 -2.18567,-34.00331c-15.14133,15.44952 -35.61045,30.01495 -53.6709,41.95595c-18.66188,12.21072 -37.64063,23.92986 -56.91567,35.146c-3.26239,1.91603 -16.53194,10.52448 -19.59778,10.62438c-1.28501,0.04114 -2.64628,-0.31145 -3.54696,-1.28694c-0.67184,-0.72869 -0.89481,-1.67774 -0.77745,-2.64619c0.17897,-1.45061 0.85666,-2.36792 2.01845,-3.20855c4.75863,-3.44126 9.9045,-5.5747 14.9741,-8.35929c5.89107,-3.23381 11.63839,-6.81113 17.41796,-10.24474c34.7479,-20.65199 70.18524,-42.38023 98.61667,-71.42909c-1.01803,-5.85531 -2.48199,-11.16175 -3.70539,-16.93479c-4.44471,4.52106 -9.97492,9.05975 -14.87729,13.11628c-32.02532,26.50024 -67.21329,49.49722 -102.31032,71.58803l-11.6061,7.29298c-2.90152,1.83317 -6.16392,5.0952 -9.78715,1.8699c-1.88936,-1.68038 -0.33152,-4.41647 1.38476,-5.61967c5.16935,-3.62225 10.74064,-6.84345 16.13589,-10.15953c9.00383,-5.60675 17.94896,-11.30779 26.83544,-17.1017c33.37488,-21.8255 62.30506,-42.36582 91.87481,-68.88368c-17.58517,-58.00135 -57.49362,-106.61092 -110.91513,-135.10269c-26.47459,-14.22335 -55.53974,-22.9646 -85.45858,-25.70315c-5.57129,-0.53314 -17.11578,-1.22683 -22.93057,-0.9338c-10.27885,0.23395 -19.72831,0.66632 -29.98838,2.10145c-50.70511,7.18958 -97.50386,31.30607 -132.8215,68.44565c-41.96738,43.89516 -64.61044,102.80886 -62.8613,163.55657c1.20961,47.81538 17.47515,94.02497 46.4734,132.02811zM860.93001,540.90646c-1.47894,0.07287 -2.80352,0.93906 -3.4651,2.26597c-0.66157,1.32662 -0.55685,2.90767 0.27342,4.13526c0.83057,1.2279 2.25756,1.91163 3.73326,1.78851c2.22852,-0.18569 3.89696,-2.1267 3.74909,-4.36151c-0.14756,-2.23483 -2.05719,-3.93841 -4.29068,-3.82823zM828.91848,490.27038c1.98588,-0.75278 3.04528,-2.92177 2.42008,-4.95416c-0.62548,-2.03208 -2.72021,-3.22766 -4.78473,-2.73051c-1.45605,0.35082 -2.597,1.48264 -2.96137,2.93735c-0.36409,1.45472 0.10885,2.992 1.2275,3.98894c1.11865,0.99724 2.69793,1.28959 4.09853,0.75835z" id="CompoundPath-1-1-1-1-1-1-1" fill="#f91b46"/><path d="M971.29508,404.06728c-4.16891,-2.51631 -8.18237,-5.66609 -12.12539,-8.53615c-1.77202,-1.29048 -4.88476,-3.44537 -5.1136,-5.81742c-0.14669,-1.52642 0.79507,-3.17712 1.70453,-4.34125c5.95855,-7.64118 42.7601,-27.41842 53.48899,-33.71449c4.4535,-2.61356 11.35379,-7.50366 15.70753,-9.4044c0.98282,-0.42839 2.31184,-0.49361 3.37387,-0.63318c17.31233,10.89586 34.41051,22.16693 51.61431,33.23672c3.58216,2.30533 18.06338,10.96051 20.14051,13.25467c0.38432,0.42576 0.67769,1.21936 0.59849,1.7932c-0.31979,2.3068 -15.57553,12.06762 -18.37437,13.97336c3.00128,2.12286 15.8601,10.35434 16.54954,13.32637c0.18776,0.81567 -0.07042,1.61602 -0.51929,2.29798c-2.72842,4.13557 -11.62665,9.08915 -15.88356,11.67537c3.69658,2.13433 16.65517,10.33406 17.76414,13.77385c-0.23763,2.41495 -10.07465,8.40746 -12.50678,10.07081c-7.94474,5.41841 -15.93638,10.77274 -23.96911,16.06304c-2.10647,1.27842 -4.17188,2.62444 -6.19032,4.03568c-6.52184,4.23635 -24.44145,16.20378 -31.45028,17.84625c-7.32862,-1.87342 -24.17744,-12.86037 -31.27428,-17.36643c-2.08886,-1.41563 -4.07797,-2.64236 -6.22552,-3.95339c-5.08134,-3.27409 -34.35477,-21.94774 -35.89795,-24.21136c-0.51047,-0.7516 -0.77745,-2.14198 -0.50168,-3.01904c0.91243,-2.87947 15.66649,-11.72736 18.97873,-13.82467c-2.81058,-1.81318 -5.80599,-3.73245 -8.64002,-5.47687c-11.00173,-6.77174 -11.70878,-6.40801 -1.49036,-13.6669zM994.24617,441.32439l-6.1551,-4.47347l-0.04694,-11.82756c-2.8047,1.84816 -5.79426,3.89316 -8.65763,5.60526c-1.34955,-0.73722 -2.78712,-1.80585 -4.06625,-2.70201c3.82568,-2.79778 8.66937,-5.91848 12.75029,-8.39718l0.01174,-3.89051c-4.27454,-2.95322 -8.57256,-5.87558 -12.89111,-8.76741c-1.2762,-0.94289 -2.6052,-1.87576 -3.89607,-2.80425l-10.24188,7.38173c-10.21841,7.25892 -9.51136,6.89516 1.49036,13.6669c2.83405,1.74442 5.82944,3.66369 8.64002,5.47686c-3.31226,2.09731 -18.06632,10.94522 -18.97873,13.82469c-0.27579,0.87706 -0.00878,2.26743 0.50169,3.01903c1.54318,2.26362 30.81659,20.93727 35.89793,24.21136c2.14755,1.31104 4.13666,2.53776 6.22552,3.95339c7.09686,4.50607 23.94566,15.49302 31.27428,17.36643c7.00884,-1.64247 24.92847,-13.60989 31.45031,-17.84625c2.01844,-1.41124 4.08385,-2.75724 6.19032,-4.03568c8.03273,-5.2903 16.02441,-10.64464 23.96911,-16.06304c2.43213,-1.66333 12.26915,-7.65586 12.50678,-10.07081c-1.10897,-3.43979 -14.06756,-11.63952 -17.76414,-13.77385c4.25694,-2.58623 13.15515,-7.53983 15.88356,-11.67537c0.44886,-0.68196 0.70705,-1.48234 0.51929,-2.29798c-0.68944,-2.97203 -13.54828,-11.20351 -16.54954,-13.32637l-3.98411,2.7922c-4.71754,3.22443 -11.11321,7.15639 -15.48164,10.39638c0.11734,0.35435 0.25819,0.78656 0.4254,1.29663c3.76405,3.18476 11.1367,7.33001 14.96822,9.96384c-1.64586,1.14239 -2.57,1.73738 -4.33615,2.66056c-3.46481,-2.30799 -6.9531,-4.57747 -10.46778,-6.80728c0.04108,4.4047 0.05868,8.81 0.04987,13.21499c-2.00378,1.27315 -4.01637,2.53305 -6.03776,3.78003c-0.25817,-6.63217 -0.20241,-13.78707 -0.28457,-20.46802c-9.59938,5.92377 -21.26417,14.16992 -30.89876,19.49753c-1.21752,-0.58559 -2.34703,-1.28871 -3.48242,-2.01681c-9.20331,-5.89676 -18.64135,-11.63922 -27.59824,-17.90501l-0.98281,0.76657zM1094.51455,389.71782l-67.39519,-43.39655c-8.21463,5.10019 -16.52315,10.04787 -24.91967,14.84072c-9.06544,5.21243 -37.92813,20.70574 -43.57568,28.11421c4.96986,3.93079 11.31565,8.26555 16.52902,11.95479c8.57549,-6.61134 41.26092,-31.66447 50.42318,-30.16657c9.87515,1.61427 43.66371,23.41188 52.73794,30.10517c5.3131,-3.93901 10.71423,-7.75753 16.20043,-11.45177zM995.19378,414.93992c8.26451,-5.74572 16.90159,-11.08831 25.33922,-16.57753c1.67813,-1.09126 3.47655,-2.3024 5.33071,-3.04224c3.32105,1.63276 8.22931,4.87895 11.46233,6.90219l20.17867,12.75252c4.82023,-2.79163 11.81733,-7.82628 16.81359,-11.07713c-10.16561,-6.77996 -38.19806,-25.45833 -49.323,-28.44741c-13.22557,3.37015 -34.32542,19.9368 -45.80244,28.47619c5.06373,3.76889 10.79639,7.34441 16.00094,11.0134zM1026.19523,434.88876c8.72512,-5.52241 18.32449,-11.88017 27.13761,-17.12022c-8.33786,-5.71576 -18.77631,-11.81493 -27.46035,-17.29533c-8.47574,5.78744 -17.85215,11.51466 -26.51271,17.20072c8.88354,5.83357 17.82869,11.57223 26.83545,17.21481z" id="CompoundPath-1-1-1-1-1-1-1-1" fill="#c0f8dd"/><path d="M1057.58122,420.31923c1.50876,0.98019 4.54681,2.82247 5.85596,3.86144c0.0411,4.4047 0.0587,8.81001 0.04989,13.215c-2.00483,1.27315 -4.01845,2.53306 -6.0409,3.78004c-0.2583,-6.63217 -0.20252,-13.78708 -0.28472,-20.46803z" id="Path-1-1-1-1-1-1-1" fill="#fb1e4e"/><path d="M994.19923,421.04998l0.04694,20.27441l-6.1551,-4.47347l-0.04694,-11.82756c2.00085,-1.40153 4.0545,-2.72698 6.1551,-3.97338z" id="Path-1-1-1-1-1-1-1-1" fill="#fb1e4e"/><path d="M1057.581,420.31923c1.73095,-1.12005 3.48533,-2.20455 5.26323,-3.25233c0.11734,0.35435 0.25818,0.78657 0.42539,1.29664c3.76405,3.18476 11.13671,7.33001 14.96823,9.96384c-1.64586,1.14239 -2.57,1.73738 -4.33615,2.66056c-3.46481,-2.30799 -6.9531,-4.57748 -10.46778,-6.80729c-1.30847,-1.03895 -4.34494,-2.88123 -5.85291,-3.86144z" id="Path-1-1-1-1-1-1-1-2" fill="#9ce8d5"/><path d="M988.07052,419.52944l3.05116,-1.9075l4.06036,2.66144l-0.98281,0.76659c-2.1006,1.2464 -4.15426,2.57185 -6.1551,3.97338c-2.8047,1.84816 -5.79426,3.89316 -8.65763,5.60526c-1.34955,-0.73722 -2.78712,-1.80585 -4.06625,-2.70201c3.82568,-2.79778 8.66937,-5.91848 12.75029,-8.39718z" id="Path-1-1-1-1-1-1-1-3" fill="#9ce8d5"/><path d="M1082.30996,403.87833c3.00128,2.12286 15.8601,10.35434 16.54954,13.32637c0.18776,0.81567 -0.07042,1.61602 -0.51929,2.29798c-2.72842,4.13557 -11.62665,9.08915 -15.88356,11.67537c3.69658,2.13433 16.65517,10.33406 17.76414,13.77385c-0.23763,2.41495 -10.07465,8.40746 -12.50678,10.07081c-7.94474,5.41841 -15.93638,10.77274 -23.96911,16.06304c-2.10647,1.27842 -4.17188,2.62444 -6.19032,4.03568c-6.52184,4.23635 -24.44145,16.20378 -31.45028,17.84625c-7.32862,-1.87342 -24.17744,-12.86037 -31.27428,-17.36643c-2.08886,-1.41563 -4.07797,-2.64236 -6.22552,-3.95339c-5.08134,-3.27409 -34.35477,-21.94774 -35.89795,-24.21136c-0.51047,-0.7516 -0.77745,-2.14198 -0.50168,-3.01904c0.91243,-2.87947 15.66649,-11.72736 18.97873,-13.82467c-2.81058,-1.81318 -5.80599,-3.73245 -8.64002,-5.47687c-11.00173,-6.77174 -11.70878,-6.40801 -1.49036,-13.6669l10.24188,-7.38173c1.29087,0.92849 2.6199,1.86137 3.89608,2.80425c-5.0784,3.80913 -10.19789,7.55862 -15.36136,11.24815c5.20163,2.99082 10.503,6.46588 15.49045,9.80694c1.27913,0.89616 2.71672,1.96479 4.06625,2.70201l8.70457,6.22231l6.1551,4.47347c8.37891,6.09625 22.25871,17.00356 31.80529,19.39322c1.54024,-1.10949 3.40028,-2.28418 5.03148,-3.2579c8.76325,-5.22212 17.44142,-11.39653 26.3631,-16.28399c2.02139,-1.24699 4.03398,-2.50689 6.03776,-3.78004l10.41792,-6.40769c1.76615,-0.92318 2.69029,-1.51818 4.33615,-2.66056c4.50924,-2.23483 11.45355,-7.29212 15.33789,-10.52565c-4.72928,-3.82763 -10.25656,-7.61827 -15.2499,-11.13121zM994.4662,447.1553l0.13495,15.59146c0.02935,2.08644 0.24645,5.42368 0.14377,7.33588c7.12325,5.03848 23.61999,15.37345 31.45616,18.45329c11.41246,-4.94534 21.08228,-13.22148 31.37696,-18.82762l-0.17017,-23.21177c-6.88855,4.09296 -13.62161,8.53529 -20.44856,12.71961c-2.73137,1.6748 -7.20834,4.74407 -9.8957,6.01515c-10.87265,-1.29106 -23.59066,-11.53287 -32.59743,-18.07602zM1078.10877,433.75431c-3.77579,2.30857 -11.28631,6.58314 -14.60738,8.98191c0.07334,7.22365 -0.03521,15.71984 0.2611,22.87268c3.64378,-2.73021 8.05621,-5.51711 11.86429,-8.10011c6.21966,-4.26954 12.46864,-8.49238 18.75283,-12.6682c-4.79381,-3.65369 -11.21297,-7.7496 -16.27083,-11.08624zM975.19995,433.38525c-5.894,4.08649 -11.93176,8.07193 -17.87857,12.09879l31.14226,20.59114l-0.31684,-23.48502c-2.77244,-2.37116 -9.7666,-7.02004 -12.94685,-9.20491z" id="CompoundPath-1-1-1-1-1-1-1-2" fill="#9ce8d5"/><path d="M1063.50139,442.73622c0.07334,7.22365 -0.03521,15.71984 0.2611,22.87268c-1.98618,1.32572 -4.17185,2.85861 -6.18444,4.09942l-0.17017,-23.21177c1.59013,-1.16353 4.4095,-2.85744 6.0935,-3.76035z" id="Path-1-1-1-1-1-1-1-4" fill="#fb1e4e"/><path d="M988.1468,442.59017c1.79842,1.09419 4.65595,3.18767 6.31939,4.56514l0.13495,15.59146c0.02935,2.08644 0.24645,5.42368 0.14377,7.33588c-1.66934,-0.81918 -4.64422,-2.90974 -6.28127,-4.00746z" id="Path-1-1-1-1-1-1-1-5" fill="#fb1e4e"/><path d="M1082.30996,403.87833c3.00128,2.12286 15.8601,10.35434 16.54954,13.32637c0.18776,0.81567 -0.07042,1.61602 -0.51929,2.29798c-2.72842,4.13557 -11.62665,9.08915 -15.88356,11.67537c-1.67813,0.82005 -2.77832,1.55226 -4.34789,2.57623c-3.77579,2.30857 -11.28631,6.58314 -14.60738,8.98191c-1.684,0.90292 -4.5034,2.5968 -6.0935,3.76035c-6.88855,4.09296 -13.62161,8.53529 -20.44856,12.71961c-2.73137,1.6748 -7.20834,4.74407 -9.8957,6.01515c-10.87265,-1.29106 -23.59066,-11.53287 -32.59743,-18.07602c-1.66347,-1.37746 -4.52097,-3.47094 -6.31938,-4.56515c-2.77244,-2.37116 -9.76662,-7.02003 -12.94687,-9.2049c-1.02389,-0.83152 -2.87218,-2.01297 -4.01636,-2.7925c-2.81058,-1.81318 -5.80598,-3.73244 -8.64001,-5.47686c-11.00173,-6.77174 -11.70879,-6.40801 -1.49037,-13.6669l10.24188,-7.38173c1.29087,0.92849 2.6199,1.86137 3.89608,2.80425c-5.0784,3.80913 -10.19789,7.55861 -15.36136,11.24814c5.20163,2.99082 10.503,6.46589 15.49045,9.80695c1.27913,0.89616 2.71672,1.96478 4.06625,2.702l8.70457,6.22232l6.1551,4.47347c8.37891,6.09625 22.25871,17.00357 31.80529,19.39323c1.54024,-1.10949 3.40028,-2.28419 5.03148,-3.25791c8.76325,-5.22212 17.44142,-11.39653 26.3631,-16.28399c2.02139,-1.24699 4.03398,-2.50689 6.03776,-3.78004l10.41792,-6.4077c1.76615,-0.92318 2.69029,-1.51818 4.33615,-2.66056c4.50924,-2.23483 11.45354,-7.29211 15.33788,-10.52564c-4.72928,-3.82763 -10.25655,-7.61827 -15.24989,-11.13121z" id="Path-1-1-1-1-1-1-1-6" fill="#e2c1f8"/><path d="M988.08226,415.63894c1.01803,0.63848 2.07713,1.27226 3.03942,1.983l-3.05116,1.9075z" id="Path-1-1-1-1-1-1-1-7" fill="#fb1e4e"/><path d="M975.15302,401.23098c8.57549,-6.61134 41.26092,-31.66447 50.42318,-30.16657c9.87515,1.61427 43.66371,23.41188 52.73794,30.10517l-3.99584,2.72814c-10.16561,-6.77996 -38.19806,-25.45834 -49.323,-28.44742c-13.22557,3.37015 -34.32542,19.93681 -45.80244,28.4762c-1.19993,-0.65258 -2.87513,-1.88634 -4.03984,-2.69554z" id="Path-1-1-1-1-1-1-1-8" fill="#e2c1f8"/><path d="M995.19378,414.93992c8.26451,-5.74572 16.90159,-11.08831 25.33922,-16.57753c1.67813,-1.09126 3.47655,-2.3024 5.33071,-3.04224c3.32105,1.63276 8.22931,4.87895 11.46233,6.90219l20.17867,12.75252c-1.54024,1.14709 -2.52601,1.81936 -4.17187,2.79367c-8.33786,-5.71576 -18.77631,-11.81493 -27.46035,-17.29533c-8.47574,5.78744 -17.85215,11.51466 -26.51271,17.20072z" id="Path-1-1-1-1-1-1-1-9" fill="#9ce8d5"/><path d="M813.80121,551.41476l0.03549,46.96094c0.00088,7.88916 0.01584,15.78127 -0.027,23.67043c-0.00879,1.61016 -0.62607,3.16742 -2.32708,3.5435c-0.90215,0.1998 -1.84565,-0.00589 -2.5838,-0.56414c-1.91226,-1.44268 -1.28499,-10.28971 -1.27736,-12.65792l0.03168,-19.21898l-0.00381,-66.53722l-0.00645,-92.92785l-0.00057,-29.22456c0,-5.15513 -0.07863,-10.45454 0.1285,-15.60585c0.08627,-2.14551 2.22676,-5.23534 3.52349,-6.98683c4.8924,-6.60722 12.04971,-8.52881 19.87531,-9.55161c2.91003,-0.38021 8.55555,-0.48716 12.12831,-0.52271c11.4556,-0.114 26.78908,-1.92455 36.85406,4.12263c1.25802,0.75571 6.77853,7.09495 7.78132,8.29199c10.04795,11.99359 18.76692,25.24474 27.96466,37.90736l73.56908,102.35076c-0.68063,-16.96362 -0.56622,-35.67575 -0.86253,-52.81683c2.14755,1.31104 4.13666,2.53776 6.22552,3.95339c0.07629,7.02972 1.81017,57.7413 -0.08215,59.79161c-0.60729,0.65788 -1.83068,0.82771 -2.66681,0.83947c-1.45515,-0.65082 -3.04821,-2.293 -4.01344,-3.56056c-26.5714,-34.92887 -50.16794,-72.6887 -77.28004,-107.15331l-0.01144,31.10887c3.98879,5.31763 8.16154,10.36727 12.11189,15.79241c4.77592,-2.59711 10.09345,-1.45531 12.73502,3.51443c1.20286,2.2689 1.41995,4.93153 0.60729,7.36674c-3.74676,11.14796 -22.47641,5.55855 -16.53459,-7.71256c-2.10353,-2.41111 -4.8352,-6.17854 -6.84102,-8.77503c-2.0299,-2.62737 -5.20017,-6.53993 -6.87301,-9.21372c1.21988,-10.85384 -0.59057,-25.69897 0.3937,-36.99678c0.20567,-2.36145 -17.55379,-25.71399 -20.60905,-29.50165c-2.36316,-2.91033 -4.83314,-5.73161 -7.4052,-8.45857c-5.008,-5.23006 -14.00683,-4.90363 -20.8989,-5.05934c5.46684,7.41229 27.14732,37.6003 31.51339,45.19475c0.53072,0.9229 0.27842,29.43318 -0.1552,31.66448c9.68241,13.60873 20.60319,29.10056 29.75371,43.01664c4.81789,-1.76529 9.6519,-0.91585 11.94905,4.24017c1.07787,2.37497 1.14036,5.08785 0.1728,7.51014c-4.37869,11.0134 -21.73093,4.42762 -15.40156,-8.61314c-10.57105,-14.84868 -21.06525,-30.35432 -31.4594,-45.35812c-6.24225,0.28382 -14.292,0.04613 -20.74576,0.08668l0.00322,45.40308c5.3571,1.67273 9.34971,6.86841 7.02732,12.56095c-4.795,11.75442 -22.52656,4.88659 -17.34488,-7.50014c1.05147,-2.51396 3.29583,-3.84204 5.68862,-4.7429l-0.03785,-31.46261c-0.00469,-3.42834 -0.62547,-16.76 1.09225,-18.75476c1.7682,-0.42926 7.40078,-0.15366 9.55243,-0.13633l15.35285,-0.00646l0.00441,-27.29093l-32.52436,-45.73568c-6.61893,0.35758 -13.56442,0.16633 -20.16956,0.7854c2.52747,4.00981 6.41651,9.27159 9.21741,13.30197l18.17516,26.19906c2.08476,-0.22712 5.04937,-0.5806 6.92583,0.41869c5.15322,2.74373 6.7146,8.11657 3.97237,13.04341c-1.06762,1.94894 -2.89743,3.36457 -5.04996,3.90696c-2.44298,0.64906 -5.04436,0.26855 -7.20012,-1.05248c-2.07595,-1.27079 -3.55048,-3.32813 -4.08883,-5.70457c-0.65071,-2.98231 0.2526,-5.29323 1.86708,-7.69848c-9.54422,-13.72038 -19.49331,-27.6814 -28.78171,-41.53871c-0.67008,0.13575 -1.33662,0.28823 -1.99938,0.45689c-5.20984,1.35159 -8.29269,4.99088 -10.92782,9.42527l-0.066,4.87718c1.58161,1.41594 10.29118,13.21852 11.87131,15.45717c6.35666,9.0051 14.2647,18.4527 20.39195,27.49453c-0.43187,19.91742 0.00088,40.05225 -0.15697,59.98818c-0.06104,7.74372 0.13114,15.61408 -0.10034,23.34017c2.11791,1.3034 3.83271,3.24088 4.44413,5.70077c0.51254,2.12963 0.10798,4.3768 -1.11514,6.19291c-1.32051,1.98976 -3.37211,3.37692 -5.7083,3.85996c-11.7038,2.38174 -14.99346,-15.26413 -2.21883,-16.74707l-0.01027,-81.43025l-27.37615,-36.61422l-0.01086,143.19282c2.23555,1.49851 15.53447,19.70117 18.19836,23.23587c-0.02612,6.00869 0.07158,12.02032 0.0443,18.02901c-0.01028,2.29769 0.18745,4.49256 -2.38753,5.11254c-0.59585,-0.13515 -0.85197,-0.15573 -1.28353,-0.62584c-2.00026,-2.17722 -1.09783,-17.29737 -1.0773,-21.1494c-4.42388,-5.42986 -9.21417,-12.06734 -13.48139,-17.702zM861.48157,514.79436c2.62926,-0.12458 4.66531,-2.35029 4.56001,-4.98412c-0.10502,-2.63385 -2.31272,-4.68941 -4.94316,-4.60304c-2.65802,0.08727 -4.73633,2.3259 -4.62983,4.98677c0.1065,2.66117 2.35672,4.72644 5.01298,4.6004zM928.71395,484.61045c1.62561,-0.40048 2.89888,-1.6645 3.31256,-3.28876c0.41397,-1.62454 -0.09889,-3.3449 -1.3343,-4.47641c-1.23513,-1.13123 -2.99188,-1.48939 -4.57056,-0.9317c-2.28132,0.80595 -3.52994,3.2629 -2.83785,5.58441c0.69179,2.32179 3.08107,3.69101 5.43016,3.11246zM922.59785,510.39172c2.94494,-0.77335 5.05434,-2.99494 4.06009,-6.18058c-0.35762,-1.13474 -1.15181,-2.07998 -2.20681,-2.62647c-0.65277,-0.33113 -1.12248,-0.44073 -1.82893,-0.55093c-5.57039,1.06981 -5.57451,8.01433 -0.02436,9.358zM863.50794,430.88894c2.3089,-0.58912 3.71889,-2.92472 3.16674,-5.24622c-0.55213,-2.3215 -2.86162,-3.76975 -5.18813,-3.25322c-1.53731,0.34143 -2.77185,1.48616 -3.22984,2.99523c-0.45769,1.50908 -0.06805,3.14802 1.0201,4.28864c1.08785,1.14034 2.70496,1.60487 4.23113,1.21557zM842.69735,531.78295c2.10823,-0.56678 3.3812,-2.71288 2.87043,-4.8381c-0.51077,-2.12522 -2.61959,-3.45595 -4.75422,-3.00023c-1.43141,0.30588 -2.58468,1.3654 -3.01154,2.76723c-0.42716,1.40213 -0.06073,2.9259 0.95641,3.97956c1.01745,1.05394 2.52542,1.47174 3.93893,1.09156z" id="CompoundPath-1-1-1-1-1-1-1-3" fill="#fb1e4e"/><path d="M1013.29826,525.08083c1.76615,0.25239 3.46776,1.21847 3.07756,3.24556c-1.66934,8.67102 -2.32944,17.99023 -4.12492,26.58192c3.32399,-0.04908 12.83831,-0.94729 15.79557,1.19497c0.48113,0.3467 0.68063,2.30357 0.3726,2.87947c-3.02768,5.69723 -6.50423,11.26519 -9.80768,16.83021l-9.81649,16.56871c-1.59305,2.68848 -4.8349,9.11734 -7.32277,10.38665c-2.1094,-0.41135 -3.53816,-1.0225 -3.39734,-3.49648c0.17016,-2.97349 0.7804,-5.97344 1.2674,-8.92048c0.95347,-5.82945 1.9451,-11.6501 2.97781,-17.4678c-2.70202,-0.1087 -5.50673,-0.04997 -8.15889,-0.18512c-2.2385,-0.11166 -7.39904,0.39079 -8.01807,-2.34176c-0.15843,-0.70224 -0.18776,-1.53962 0.1555,-2.17722c2.37344,-4.41616 5.11947,-8.87347 7.66602,-13.16799l15.70168,-26.55928c1.35247,-2.2745 1.26446,-2.77224 3.63204,-3.37134zM994.22269,566.58104c20.39283,0.59939 14.314,-0.28793 12.36889,17.53246c4.50045,-7.72755 9.05663,-15.42574 13.66857,-23.09159c-1.72508,0.00293 -5.37178,-0.18805 -6.8915,0.04407c-12.97325,1.97742 -4.96105,-10.86999 -5.71505,-17.2874c-4.42415,7.63264 -8.90115,15.23358 -13.43092,22.80246z" id="CompoundPath-1-1-1-1-1-1-1-4" fill="#fb1e4e"/><path d="M1060.32409,548.4971c2.45852,0.26386 3.63498,1.5414 3.64379,4.14469c0.04987,18.07044 1.30555,36.16704 0.88012,54.24892c-0.39313,6.04982 0.03226,25.41279 -5.62997,29.01213c-12.60652,8.01551 -32.98172,5.92054 -47.41601,5.76188c-3.36213,-0.4848 -14.71593,0.15867 -17.2742,-1.7453c-10.50594,-7.80395 -19.77085,-20.40899 -27.73025,-30.67811c-1.15006,-1.43385 -2.98955,-3.51117 -1.95979,-5.40341c0.43421,-0.80507 1.20579,-1.3751 2.10353,-1.55433c3.04528,-0.6376 7.2406,6.74913 9.10358,8.96457c6.39567,7.60121 13.71549,17.89091 21.70422,23.66455c12.16059,1.33983 49.04429,3.01168 58.40017,-4.41324c2.79884,-9.02626 2.58468,-27.54889 2.46732,-37.29502c-0.12908,-8.85583 -0.30218,-17.71168 -0.5222,-26.56458c-0.14376,-4.82458 -0.73053,-11.17706 -0.08216,-15.99222c0.13789,-1.02926 1.46398,-1.68888 2.31184,-2.15049z" id="Path-1-1-1-1-1-1-1-10" fill="#fb1e4e"/><path d="M1057.55457,475.12143c2.01844,-1.41124 4.08385,-2.75724 6.19032,-4.03568l0.16723,19.29217c0.04108,3.64401 0.18484,7.32414 -0.044,10.95755c-0.13495,2.10907 -1.07964,3.07164 -3.17145,3.39132c-0.97695,-0.22036 -1.85415,-0.67874 -2.3793,-1.58283c-1.02098,-1.75825 -0.66598,-23.90782 -0.7628,-28.02253z" id="Path-1-1-1-1-1-1-1-11" fill="#fb1e4e"/></g></g></g></g><g id="Layer5-1" opacity="0.8"><g id="Group-31000-1"><g id="Group-1-1-1-1-1-1-1-1-1"><g id="Group-1-1-1-1-1-1-1-1-1-1"><path d="M927.12253,255.35058c4.56792,-0.38004 14.5399,-0.17031 19.2369,0.04437c35.14982,1.80461 69.46352,11.60775 100.42682,28.69274c45.6851,25.27502 81.91749,65.24706 103.07017,113.70791c3.34747,7.66442 6.68904,16.14034 9.08596,24.20946c6.26366,-6.85857 12.57425,-13.48706 18.0106,-21.08258c7.64841,-10.68704 17.99298,-32.11623 15.88651,-45.44603c-0.87134,-5.50633 -3.59388,-10.0235 -8.0386,-13.27649c-12.38062,-9.06488 -32.62677,-6.8373 -46.72953,-4.11455c-3.98116,0.76868 -8.02394,2.24765 -12.00217,2.76978c-1.41995,0.18634 -2.91619,-0.19442 -4.00171,-1.168c-0.78331,-0.70308 -1.35541,-1.73388 -1.35541,-2.81892c0,-0.79326 0.37553,-1.55296 0.92121,-2.10355c3.83155,-3.87458 31.35642,-6.66594 37.44112,-6.66774c11.85254,-0.0033 25.23359,2.08977 33.92642,11.06868c5.61237,5.79989 7.96821,13.27289 7.86844,21.33213c-0.07042,5.64444 -1.95683,10.48092 -3.67018,15.72604c-1.65173,5.0477 -3.32105,10.15202 -5.58007,14.95646c-7.0147,14.9169 -18.70587,27.53853 -30.1829,38.97987c1.38181,5.34216 2.49078,9.92792 3.62617,15.3246c4.62074,-4.09477 8.6107,-7.33428 13.14049,-11.79213c11.77333,-11.8179 21.70424,-25.40893 29.44359,-40.29947c7.78044,-14.93279 13.56881,-29.83681 8.07968,-46.54782c-3.40908,-10.37968 -10.02188,-17.18104 -19.39829,-22.19339c-24.86687,-13.29415 -54.67717,-7.49396 -79.43255,2.95702c-2.09767,0.88643 -4.62365,-0.60302 -5.07546,-2.92646c-0.18776,-0.93284 0.03226,-1.90374 0.5985,-2.65895c2.25608,-3.02563 20.03196,-8.31238 24.32998,-9.34259c4.75276,-1.13117 9.55244,-2.03135 14.38734,-2.69759c18.83791,-2.51217 41.61004,0.94393 56.92153,13.12101c8.82486,7.01914 14.92719,16.48155 16.30605,27.94056c1.09138,9.10533 0.39312,18.34156 -2.05661,27.16738c-5.27497,19.17585 -21.89198,43.17381 -35.31705,57.47991c-6.69492,7.13597 -14.47827,12.55931 -20.07598,19.86274c0.24058,1.15813 0.45474,2.32194 0.63958,3.49054c9.40868,62.70015 -5.88227,126.65488 -42.53127,177.87174c-30.62884,42.73915 -74.17813,74.00189 -123.93238,88.96523c-8.86008,2.70209 -18.54747,4.68223 -27.57183,6.8481c-1.93336,0.46433 -4.64422,0.52723 -6.48663,0.94063c-2.083,0.46433 -3.22131,1.01552 -5.48912,1.381c-8.03273,1.06646 -16.13588,1.44392 -24.23022,1.12937c-6.63626,-0.22169 -19.0468,-0.37147 -25.24827,-1.1084c-56.35353,-6.46165 -108.67226,-33.00323 -147.75631,-74.9575c-0.08097,0.02398 -0.16165,0.04792 -0.24234,0.0719c-33.60401,8.66944 -69.86426,8.79527 -101.51086,-7.09373c-7.29864,-3.6637 -18.77294,-21.02357 -21.02398,-28.92913c-3.26973,-11.48237 2.12554,-26.79922 7.78899,-36.89162c3.06323,-5.3892 6.45922,-10.57469 10.1674,-15.52352c9.1737,-12.42602 19.63326,-23.73884 30.06937,-35.04417c4.12227,-4.46592 8.66234,1.69074 4.92438,5.99343c-15.03308,17.30176 -50.75516,52.21022 -45.76211,77.64041c0.51474,2.6302 1.38469,5.17352 2.58494,7.56105c1.61803,3.20836 11.38859,16.96145 14.52423,18.47726c18.39138,8.88814 43.48416,13.48348 63.60678,11.80292c10.49831,-0.87773 19.90787,-2.8219 28.90377,-4.74212c-2.47966,-2.79495 -4.85748,-5.68577 -7.12854,-8.65748c-3.28703,0.85677 -6.83779,1.23122 -10.16356,1.81538c-13.29156,2.33961 -24.2857,2.17785 -37.59223,0.1318c-13.96048,-1.53078 -32.91487,-7.50713 -38.46327,-22.39259c-8.54266,-22.91684 11.35118,-50.59677 24.38838,-67.71997c1.61594,-2.12093 3.92365,-5.56297 6.24546,-6.62042c2.06774,-0.93883 4.25487,0.86875 4.90677,2.88484c-0.10885,1.72252 -1.18143,3.64274 -2.24551,4.96682c-17.79553,22.13794 -50.60911,68.44493 -3.41994,79.49293c19.02187,4.45155 31.78506,4.09207 51.17071,0.56917c-28.7829,-39.57271 -44.81668,-87.29663 -45.88518,-136.57562c-1.64177,-63.62821 21.63528,-125.29814 64.67322,-171.34329c33.60782,-36.20441 77.45724,-60.77743 125.41542,-70.28253c6.37397,-1.30183 12.69923,-2.84537 19.15681,-3.53359c5.8846,-0.62714 11.81442,-0.70077 17.72631,-0.82325zM754.29692,636.41699c19.32287,-4.53544 40.9605,-10.02649 59.65291,-16.6499c0.72758,-2.40251 18.7537,-25.73275 21.43344,-28.3899l0.01379,-36.37633c-3.92836,-4.75113 -7.89634,-9.4654 -11.90331,-14.14553c-1.69954,-2.00799 -4.29391,-4.89761 -5.78428,-6.97749l-0.00763,-46.13233c-2.54126,-1.09582 -4.53154,-2.25544 -5.65019,-5.03482c-1.9448,-4.83261 0.13467,-10.0759 5.14352,-11.70345c2.41891,-0.79206 5.05082,-0.53175 7.27612,0.71955c2.0164,1.13806 3.461,3.10083 3.9703,5.3952c1.21959,5.36553 -1.62092,8.59516 -6.05681,10.74244l0.03901,28.79403c0.00118,4.16907 0.22063,11.64084 -0.19686,15.56188c3.63908,4.21759 7.24648,8.46304 10.82249,12.73636c2.03371,2.41062 5.24209,6.018 6.98067,8.52236c0.18834,11.81491 -0.4779,27.65298 0.19716,39.00354c-5.91015,8.11524 -13.01051,17.08726 -19.29912,24.95988c7.21302,-2.21978 14.4557,-5.06867 21.60918,-7.52511c2.44709,-0.8418 6.6075,-2.57027 8.95689,-3.19936c-0.01174,-19.12731 0.3817,-40.1389 -0.05369,-59.17545c-4.09851,-1.50952 -6.30504,-4.34789 -6.29711,-8.85967c0.01703,-9.61098 12.76818,-12.48593 16.36854,-3.31799c1.96593,5.01146 -0.22033,10.26075 -5.31135,12.09469c-0.07687,19.02366 0.23707,38.5524 -0.06953,57.49996c17.13278,-6.47064 34.14265,-13.27378 51.01991,-20.41244c10.1348,-4.29577 20.07127,-8.89712 30.13421,-13.19289c-4.08092,-6.12314 -9.0801,-12.76453 -13.38603,-18.7948l-23.27382,-32.75041l-17.47547,-24.55367c-2.41686,-3.36234 -6.61747,-9.48666 -9.23353,-12.54075c0.17897,18.03121 -0.2306,36.2682 -0.04077,54.37969c0.16899,13.01168 0.24234,26.02482 0.22003,39.03799c0.01174,5.67379 0.00909,11.35057 0.09329,17.02137c0.0305,2.05204 -0.93939,3.99024 -3.17934,3.84644c-2.7123,-0.17376 -3.04089,-2.64818 -3.07023,-4.86796c-0.10356,-7.81271 -0.03345,-15.62537 -0.07952,-23.43808c-0.15021,-16.5151 -0.21914,-33.0281 -0.20712,-49.5417c-0.01906,-9.65322 0.04429,-19.30617 0.18983,-28.95818c0.07657,-5.23072 0.02523,-10.60764 0.73314,-15.78385c0.26639,-1.94719 2.18128,-2.48131 3.8465,-2.28809c5.38587,3.37791 32.91573,43.73789 38.33504,51.38641l32.21369,45.2573c3.25065,-1.54277 10.20081,-4.59234 13.0202,-6.32084c-9.03609,-12.41105 -17.75829,-26.23604 -26.63009,-38.94754l-0.0616,-20.5119c-0.00587,-3.46508 -0.28163,-7.21027 0.12029,-10.64359c0.09094,-0.77318 0.1731,-1.47175 0.73638,-2.03015c0.49287,-0.48949 1.00335,-0.76091 1.70746,-0.7001c0.61023,0.05271 1.19994,0.40114 1.56079,0.90859c1.42875,2.01878 0.83908,27.57448 0.55156,31.51947c8.78966,12.41163 17.53237,25.6914 26.08145,38.34718c2.17099,-0.99756 5.20457,-2.51034 7.41958,-3.15142c1.47863,0.68599 2.95433,1.46187 3.50294,3.16341c0.25231,0.77588 0.11148,1.52179 -0.27579,2.22278c-1.88642,3.42403 -17.77587,9.99354 -21.79811,11.87481c-25.31898,11.81491 -51.03047,22.73411 -77.08787,32.73662c-33.42064,12.98021 -67.76984,24.83404 -102.48751,33.6473c-2.99012,0.7579 -6.83517,1.63263 -9.89012,2.12094c2.16485,2.55829 5.36944,6.13511 7.31279,8.72336c9.49935,-2.12693 23.67252,-5.20646 32.84503,-8.14221c52.70656,-13.81601 104.00547,-32.72165 153.20379,-56.46227c8.2557,-4.02019 16.46445,-8.7054 24.89619,-12.13543c2.65215,-1.07844 6.81229,2.32463 4.11319,5.05068c-5.58303,5.62585 -14.72181,8.02837 -21.56341,11.94372c-9.26199,4.49949 -18.92006,9.58912 -28.09403,13.67221c-17.69432,7.65692 -35.62657,14.72668 -53.76947,21.19432c-27.43453,9.91265 -55.27421,18.61207 -83.44189,26.07427c-7.35767,1.95616 -14.64698,3.53488 -21.96153,5.36224c41.70803,43.41017 98.47173,68.31911 158.01991,69.33764c61.54227,1.23721 120.92819,-23.14749 164.50094,-67.54023c42.44324,-42.99975 66.53266,-101.38225 67.01966,-162.43119c0.08216,-10.27393 -0.55741,-24.43534 -2.18567,-34.66792c-15.14133,15.75149 -35.61045,30.60161 -53.6709,42.77599c-18.66188,12.44938 -37.64063,24.39758 -56.91567,35.83294c-3.26239,1.95348 -16.53194,10.73018 -19.59778,10.83203c-1.28501,0.04194 -2.64628,-0.31754 -3.54696,-1.3121c-0.67184,-0.74293 -0.89481,-1.71053 -0.77745,-2.69791c0.17897,-1.47896 0.85666,-2.4142 2.01845,-3.27127c4.75863,-3.50852 9.9045,-5.68366 14.9741,-8.52267c5.89107,-3.29702 11.63839,-6.94425 17.41796,-10.44498c34.7479,-21.05564 70.18524,-43.20857 98.61667,-72.8252c-1.01803,-5.96976 -2.48199,-11.37991 -3.70539,-17.26579c-4.44471,4.60943 -9.97492,9.23683 -14.87729,13.37264c-32.02532,27.0182 -67.21329,50.46466 -102.31032,72.98724l-11.6061,7.43553c-2.90152,1.869 -6.16392,5.19479 -9.78715,1.90645c-1.88936,-1.71322 -0.33152,-4.5028 1.38476,-5.72951c5.16935,-3.69305 10.74064,-6.97721 16.13589,-10.3581c9.00383,-5.71634 17.94896,-11.52881 26.83544,-17.43596c33.37488,-22.25209 62.30506,-43.19388 91.87481,-70.23004c-17.58517,-59.13501 -57.49362,-108.69467 -110.91513,-137.74332c-26.47459,-14.50136 -55.53974,-23.41345 -85.45858,-26.20553c-5.57129,-0.54356 -17.11578,-1.2508 -22.93057,-0.95205c-10.27885,0.23853 -19.72831,0.67934 -29.98838,2.14253c-50.70511,7.33011 -97.50386,31.91796 -132.8215,69.78344c-41.96738,44.75311 -64.61044,104.8183 -62.8613,166.75334c1.20961,48.74995 17.47515,95.86272 46.4734,134.60865zM853.4534,534.69894c-1.47894,0.0743 -2.80352,0.95742 -3.4651,2.31026c-0.66157,1.35255 -0.55685,2.9645 0.27342,4.21609c0.83057,1.2519 2.25756,1.94899 3.73326,1.82347c2.22852,-0.18932 3.89696,-2.16827 3.74909,-4.44676c-0.14756,-2.27851 -2.05719,-4.01539 -4.29068,-3.90306zM821.44187,483.07316c1.98588,-0.76749 3.04528,-2.97888 2.42008,-5.05099c-0.62548,-2.0718 -2.72021,-3.29075 -4.78473,-2.78388c-1.45605,0.35768 -2.597,1.51162 -2.96137,2.99477c-0.36409,1.48315 0.10885,3.05048 1.2275,4.06691c1.11865,1.01673 2.69793,1.31479 4.09853,0.77317z" id="CompoundPath-1-1-1-1-1-1-1-1-1" fill="#f91b46"/><path d="M963.81847,395.18518c-4.16891,-2.5655 -8.18237,-5.77684 -12.12539,-8.70299c-1.77202,-1.3157 -4.88476,-3.51272 -5.1136,-5.93112c-0.14669,-1.55625 0.79507,-3.23922 1.70453,-4.42611c5.95855,-7.79053 42.7601,-27.95432 53.48899,-34.37345c4.4535,-2.66465 11.35379,-7.65032 15.70753,-9.58821c0.98282,-0.43676 2.31184,-0.50325 3.37387,-0.64556c17.31233,11.10882 34.41051,22.60019 51.61431,33.88634c3.58216,2.35039 18.06338,11.17474 20.14051,13.51374c0.38432,0.43408 0.67769,1.24319 0.59849,1.82824c-0.31979,2.35188 -15.57553,12.30348 -18.37437,14.24647c3.00128,2.16436 15.8601,10.55672 16.54954,13.58684c0.18776,0.83161 -0.07042,1.64761 -0.51929,2.3429c-2.72842,4.2164 -11.62665,9.2668 -15.88356,11.90357c3.69658,2.17605 16.65517,10.53604 17.76414,14.04307c-0.23763,2.46215 -10.07465,8.57179 -12.50678,10.26765c-7.94474,5.52431 -15.93638,10.9833 -23.96911,16.377c-2.10647,1.3034 -4.17188,2.67573 -6.19032,4.11456c-6.52184,4.31915 -24.44145,16.52048 -31.45028,18.19506c-7.32862,-1.91003 -24.17744,-13.11173 -31.27428,-17.70587c-2.08886,-1.4433 -4.07797,-2.694 -6.22552,-4.03066c-5.08134,-3.33808 -34.35477,-22.37672 -35.89795,-24.68458c-0.51047,-0.76629 -0.77745,-2.18385 -0.50168,-3.07805c0.91243,-2.93575 15.66649,-11.95657 18.97873,-14.09488c-2.81058,-1.84862 -5.80599,-3.8054 -8.64002,-5.58392c-11.00173,-6.90409 -11.70878,-6.53325 -1.49036,-13.93402zM986.76956,433.1705l-6.1551,-4.56091l-0.04694,-12.05874c-2.8047,1.88428 -5.79426,3.96925 -8.65763,5.71481c-1.34955,-0.75163 -2.78712,-1.84115 -4.06625,-2.75482c3.82568,-2.85246 8.66937,-6.03416 12.75029,-8.56131l0.01174,-3.96656c-4.27454,-3.01094 -8.57256,-5.99042 -12.89111,-8.93877c-1.2762,-0.96132 -2.6052,-1.91242 -3.89607,-2.85906l-10.24188,7.52601c-10.21841,7.4008 -9.51136,7.02993 1.49036,13.93402c2.83405,1.77852 5.82944,3.73529 8.64002,5.58391c-3.31226,2.1383 -18.06632,11.15915 -18.97873,14.0949c-0.27579,0.8942 -0.00878,2.31175 0.50169,3.07804c1.54318,2.30786 30.81659,21.3465 35.89793,24.68458c2.14755,1.33666 4.13666,2.58736 6.22552,4.03066c7.09686,4.59414 23.94566,15.79583 31.27428,17.70587c7.00884,-1.67457 24.92847,-13.8759 31.45031,-18.19506c2.01844,-1.43882 4.08385,-2.81113 6.19032,-4.11456c8.03273,-5.3937 16.02441,-10.85269 23.96911,-16.377c2.43213,-1.69584 12.26915,-7.8055 12.50678,-10.26765c-1.10897,-3.50703 -14.06756,-11.86702 -17.76414,-14.04307c4.25694,-2.63678 13.15515,-7.68719 15.88356,-11.90357c0.44886,-0.69529 0.70705,-1.51132 0.51929,-2.3429c-0.68944,-3.03012 -13.54828,-11.42249 -16.54954,-13.58684l-3.98411,2.84677c-4.71754,3.28745 -11.11321,7.29626 -15.48164,10.59958c0.11734,0.36127 0.25819,0.80193 0.4254,1.32197c3.76405,3.247 11.1367,7.47328 14.96822,10.15859c-1.64586,1.16472 -2.57,1.77134 -4.33615,2.71257c-3.46481,-2.3531 -6.9531,-4.66694 -10.46778,-6.94034c0.04108,4.4908 0.05868,8.98219 0.04987,13.47328c-2.00378,1.29803 -4.01637,2.58256 -6.03776,3.85391c-0.25817,-6.7618 -0.20241,-14.05654 -0.28457,-20.86808c-9.59938,6.03956 -21.26417,14.44687 -30.89876,19.87862c-1.21752,-0.59703 -2.34703,-1.3139 -3.48242,-2.05623c-9.20331,-6.01201 -18.64135,-11.86671 -27.59824,-18.25497l-0.98281,0.78156zM1087.03794,380.55526l-67.39519,-44.24475c-8.21463,5.19988 -16.52315,10.24426 -24.91967,15.13078c-9.06544,5.3143 -37.92813,21.11044 -43.57568,28.66372c4.96986,4.00762 11.31565,8.4271 16.52902,12.18845c8.57549,-6.74056 41.26092,-32.28336 50.42318,-30.75619c9.87515,1.64582 43.66371,23.86947 52.73794,30.69358c5.3131,-4.016 10.71423,-7.90915 16.20043,-11.6756zM987.71717,406.27033c8.26451,-5.85802 16.90159,-11.30504 25.33922,-16.90154c1.67813,-1.11259 3.47655,-2.3474 5.33071,-3.1017c3.32105,1.66468 8.22931,4.97431 11.46233,7.0371l20.17867,13.00177c4.82023,-2.84619 11.81733,-7.97925 16.81359,-11.29364c-10.16561,-6.91248 -38.19806,-25.95593 -49.323,-29.00342c-13.22557,3.43602 -34.32542,20.32647 -45.80244,29.03277c5.06373,3.84256 10.79639,7.48796 16.00094,11.22866zM1018.71862,426.60908c8.72512,-5.63035 18.32449,-12.11237 27.13761,-17.45484c-8.33786,-5.82748 -18.77631,-12.04586 -27.46035,-17.63337c-8.47574,5.90056 -17.85215,11.73972 -26.51271,17.53691c8.88354,5.94759 17.82869,11.79842 26.83545,17.55128z" id="CompoundPath-1-1-1-1-1-1-1-1-1-1" fill="#c0f8dd"/><path d="M1050.10461,411.75479c1.50876,0.99935 4.54681,2.87764 5.85596,3.93692c0.0411,4.4908 0.0587,8.9822 0.04989,13.47329c-2.00483,1.29803 -4.01845,2.58257 -6.0409,3.85392c-0.2583,-6.7618 -0.20252,-14.05655 -0.28472,-20.86809z" id="Path-1-1-1-1-1-1-1-1-1" fill="#fb1e4e"/><path d="M986.72262,412.49981l0.04694,20.67068l-6.1551,-4.56091l-0.04694,-12.05874c2.00085,-1.42893 4.0545,-2.78028 6.1551,-4.05104z" id="Path-1-1-1-1-1-1-1-1-1-1" fill="#fb1e4e"/><path d="M1050.10439,411.75479c1.73095,-1.14194 3.48533,-2.24764 5.26323,-3.3159c0.11734,0.36127 0.25818,0.80194 0.42539,1.32198c3.76405,3.247 11.13671,7.47328 14.96823,10.15859c-1.64586,1.16472 -2.57,1.77134 -4.33615,2.71257c-3.46481,-2.3531 -6.9531,-4.66695 -10.46778,-6.94035c-1.30847,-1.05926 -4.34494,-2.93755 -5.85291,-3.93692z" id="Path-1-1-1-1-1-1-1-1-1-2" fill="#9ce8d5"/><path d="M980.59391,410.94956l3.05116,-1.94478l4.06036,2.71346l-0.98281,0.78158c-2.1006,1.27076 -4.15426,2.62211 -6.1551,4.05104c-2.8047,1.88428 -5.79426,3.96925 -8.65763,5.71481c-1.34955,-0.75163 -2.78712,-1.84115 -4.06625,-2.75482c3.82568,-2.85246 8.66937,-6.03416 12.75029,-8.56131z" id="Path-1-1-1-1-1-1-1-1-1-3" fill="#9ce8d5"/><path d="M1074.83335,394.99254c3.00128,2.16436 15.8601,10.55672 16.54954,13.58684c0.18776,0.83161 -0.07042,1.64761 -0.51929,2.3429c-2.72842,4.2164 -11.62665,9.2668 -15.88356,11.90357c3.69658,2.17605 16.65517,10.53604 17.76414,14.04307c-0.23763,2.46215 -10.07465,8.57179 -12.50678,10.26765c-7.94474,5.52431 -15.93638,10.9833 -23.96911,16.377c-2.10647,1.3034 -4.17188,2.67573 -6.19032,4.11456c-6.52184,4.31915 -24.44145,16.52048 -31.45028,18.19506c-7.32862,-1.91003 -24.17744,-13.11173 -31.27428,-17.70587c-2.08886,-1.4433 -4.07797,-2.694 -6.22552,-4.03066c-5.08134,-3.33808 -34.35477,-22.37672 -35.89795,-24.68458c-0.51047,-0.76629 -0.77745,-2.18385 -0.50168,-3.07805c0.91243,-2.93575 15.66649,-11.95657 18.97873,-14.09488c-2.81058,-1.84862 -5.80599,-3.8054 -8.64002,-5.58392c-11.00173,-6.90409 -11.70878,-6.53325 -1.49036,-13.93402l10.24188,-7.52601c1.29087,0.94664 2.6199,1.89775 3.89608,2.85906c-5.0784,3.88358 -10.19789,7.70636 -15.36136,11.46799c5.20163,3.04928 10.503,6.59225 15.49045,9.99862c1.27913,0.91367 2.71672,2.00319 4.06625,2.75482l8.70457,6.34392l6.1551,4.56091c8.37891,6.2154 22.25871,17.3359 31.80529,19.77227c1.54024,-1.13117 3.40028,-2.32882 5.03148,-3.32158c8.76325,-5.32419 17.44142,-11.61928 26.3631,-16.60226c2.02139,-1.27136 4.03398,-2.55589 6.03776,-3.85392l10.41792,-6.53293c1.76615,-0.94123 2.69029,-1.54785 4.33615,-2.71257c4.50924,-2.27851 11.45355,-7.43465 15.33789,-10.73137c-4.72928,-3.90245 -10.25656,-7.76717 -15.2499,-11.34877zM986.98959,439.11538l0.13495,15.8962c0.02935,2.12722 0.24645,5.52969 0.14377,7.47926c7.12325,5.13696 23.61999,15.67393 31.45616,18.81397c11.41246,-5.042 21.08228,-13.4799 31.37696,-19.19562l-0.17017,-23.66545c-6.88855,4.17296 -13.62161,8.70212 -20.44856,12.96822c-2.73137,1.70754 -7.20834,4.83679 -9.8957,6.13271c-10.87265,-1.3163 -23.59066,-11.75829 -32.59743,-18.42933zM1070.63216,425.45246c-3.77579,2.35369 -11.28631,6.71181 -14.60738,9.15746c0.07334,7.36484 -0.03521,16.02709 0.2611,23.31973c3.64378,-2.78358 8.05621,-5.62494 11.86429,-8.25843c6.21966,-4.35299 12.46864,-8.65836 18.75283,-12.9158c-4.79381,-3.72511 -11.21297,-7.90107 -16.27083,-11.30292zM967.72334,425.07619c-5.894,4.16637 -11.93176,8.2297 -17.87857,12.33527l31.14226,20.9936l-0.31684,-23.94404c-2.77244,-2.41751 -9.7666,-7.15725 -12.94685,-9.38483z" id="CompoundPath-1-1-1-1-1-1-1-1-1-2" fill="#9ce8d5"/><path d="M1056.02478,434.60992c0.07334,7.36484 -0.03521,16.02709 0.2611,23.31973c-1.98618,1.35164 -4.17185,2.91448 -6.18444,4.17955l-0.17017,-23.66545c1.59013,-1.18627 4.4095,-2.91329 6.0935,-3.83385z" id="Path-1-1-1-1-1-1-1-1-1-4" fill="#fb1e4e"/><path d="M980.67019,434.46102c1.79842,1.11557 4.65595,3.24998 6.31939,4.65436l0.13495,15.8962c0.02935,2.12722 0.24645,5.52969 0.14377,7.47926c-1.66934,-0.83519 -4.64422,-2.96661 -6.28127,-4.08579z" id="Path-1-1-1-1-1-1-1-1-1-5" fill="#fb1e4e"/><path d="M1074.83335,394.99254c3.00128,2.16436 15.8601,10.55672 16.54954,13.58684c0.18776,0.83161 -0.07042,1.64761 -0.51929,2.3429c-2.72842,4.2164 -11.62665,9.2668 -15.88356,11.90357c-1.67813,0.83608 -2.77832,1.5826 -4.34789,2.62658c-3.77579,2.35369 -11.28631,6.71181 -14.60738,9.15746c-1.684,0.92056 -4.5034,2.64756 -6.0935,3.83385c-6.88855,4.17296 -13.62161,8.70212 -20.44856,12.96822c-2.73137,1.70754 -7.20834,4.83679 -9.8957,6.13271c-10.87265,-1.3163 -23.59066,-11.75829 -32.59743,-18.42933c-1.66347,-1.40438 -4.52097,-3.53878 -6.31938,-4.65437c-2.77244,-2.41751 -9.76662,-7.15724 -12.94687,-9.38482c-1.02389,-0.84777 -2.87218,-2.05232 -4.01636,-2.84708c-2.81058,-1.84862 -5.80598,-3.80539 -8.64001,-5.58391c-11.00173,-6.90409 -11.70879,-6.53325 -1.49037,-13.93402l10.24188,-7.52601c1.29087,0.94664 2.6199,1.89775 3.89608,2.85906c-5.0784,3.88358 -10.19789,7.70635 -15.36136,11.46798c5.20163,3.04928 10.503,6.59226 15.49045,9.99863c1.27913,0.91367 2.71672,2.00318 4.06625,2.75481l8.70457,6.34393l6.1551,4.56091c8.37891,6.2154 22.25871,17.33591 31.80529,19.77228c1.54024,-1.13117 3.40028,-2.32883 5.03148,-3.32159c8.76325,-5.32419 17.44142,-11.61928 26.3631,-16.60226c2.02139,-1.27136 4.03398,-2.55589 6.03776,-3.85392l10.41792,-6.53294c1.76615,-0.94123 2.69029,-1.54785 4.33615,-2.71257c4.50924,-2.27851 11.45354,-7.43464 15.33788,-10.73136c-4.72928,-3.90245 -10.25655,-7.76717 -15.24989,-11.34877z" id="Path-1-1-1-1-1-1-1-1-1-6" fill="#e2c1f8"/><path d="M980.60565,406.98301c1.01803,0.65096 2.07713,1.29712 3.03942,2.02176l-3.05116,1.94478z" id="Path-1-1-1-1-1-1-1-1-1-7" fill="#fb1e4e"/><path d="M967.67641,392.29345c8.57549,-6.74056 41.26092,-32.28336 50.42318,-30.75619c9.87515,1.64582 43.66371,23.86947 52.73794,30.69358l-3.99584,2.78146c-10.16561,-6.91248 -38.19806,-25.95594 -49.323,-29.00343c-13.22557,3.43602 -34.32542,20.32648 -45.80244,29.03278c-1.19993,-0.66533 -2.87513,-1.92321 -4.03984,-2.74823z" id="Path-1-1-1-1-1-1-1-1-1-8" fill="#e2c1f8"/><path d="M987.71717,406.27033c8.26451,-5.85802 16.90159,-11.30504 25.33922,-16.90154c1.67813,-1.11259 3.47655,-2.3474 5.33071,-3.1017c3.32105,1.66468 8.22931,4.97431 11.46233,7.0371l20.17867,13.00177c-1.54024,1.16951 -2.52601,1.85492 -4.17187,2.84828c-8.33786,-5.82748 -18.77631,-12.04586 -27.46035,-17.63337c-8.47574,5.90056 -17.85215,11.73972 -26.51271,17.53691z" id="Path-1-1-1-1-1-1-1-1-1-9" fill="#9ce8d5"/><path d="M806.32461,545.41263l0.03549,47.87881c0.00088,8.04336 0.01584,16.08972 -0.027,24.13308c-0.00879,1.64163 -0.62607,3.22932 -2.32708,3.61276c-0.90215,0.20371 -1.84565,-0.006 -2.5838,-0.57517c-1.91226,-1.47088 -1.28499,-10.49083 -1.27736,-12.90533l0.03168,-19.59462l-0.00381,-67.83772l-0.00645,-94.74416l-0.00057,-29.79577c0,-5.25589 -0.07863,-10.65888 0.1285,-15.91087c0.08627,-2.18744 2.22676,-5.33766 3.52349,-7.12339c4.8924,-6.73636 12.04971,-8.69551 19.87531,-9.7383c2.91003,-0.38764 8.55555,-0.49668 12.12831,-0.53292c11.4556,-0.11623 26.78908,-1.96216 36.85406,4.20321c1.25802,0.77048 6.77853,7.23362 7.78132,8.45406c10.04795,12.22801 18.76692,25.73816 27.96466,38.64827l73.56908,104.35125c-0.68063,-17.29518 -0.56622,-36.37305 -0.86253,-53.84915c2.14755,1.33666 4.13666,2.58736 6.22552,4.03066c0.07629,7.16712 1.81017,58.86988 -0.08215,60.96026c-0.60729,0.67074 -1.83068,0.84388 -2.66681,0.85587c-1.45515,-0.66354 -3.04821,-2.33782 -4.01344,-3.63015c-26.5714,-35.61156 -50.16794,-74.10943 -77.28004,-109.24766l-0.01144,31.7169c3.98879,5.42157 8.16154,10.5699 12.11189,16.10108c4.77592,-2.64787 10.09345,-1.48375 12.73502,3.58312c1.20286,2.31325 1.41995,5.02792 0.60729,7.51072c-3.74676,11.36585 -22.47641,5.66719 -16.53459,-7.8633c-2.10353,-2.45823 -4.8352,-6.2993 -6.84102,-8.94654c-2.0299,-2.67872 -5.20017,-6.66775 -6.87301,-9.3938c1.21988,-11.06598 -0.59057,-26.20126 0.3937,-37.71989c0.20567,-2.40761 -17.55379,-26.21658 -20.60905,-30.07827c-2.36316,-2.96721 -4.83314,-5.84363 -7.4052,-8.62389c-5.008,-5.33229 -14.00683,-4.99947 -20.8989,-5.15823c5.46684,7.55716 27.14732,38.33521 31.51339,46.0781c0.53072,0.94094 0.27842,30.00846 -0.1552,32.28337c9.68241,13.87472 20.60319,29.66934 29.75371,43.85742c4.81789,-1.7998 9.6519,-0.93375 11.94905,4.32304c1.07787,2.42139 1.14036,5.1873 0.1728,7.65693c-4.37869,11.22866 -21.73093,4.51416 -15.40156,-8.78148c-10.57105,-15.1389 -21.06525,-30.9476 -31.4594,-46.24466c-6.24225,0.28937 -14.292,0.04703 -20.74576,0.08837l0.00322,46.2905c5.3571,1.70543 9.34971,7.00265 7.02732,12.80646c-4.795,11.98416 -22.52656,4.9821 -17.34488,-7.64674c1.05147,-2.56309 3.29583,-3.91713 5.68862,-4.8356l-0.03785,-32.07756c-0.00469,-3.49535 -0.62547,-17.08758 1.09225,-19.12133c1.7682,-0.43765 7.40078,-0.15667 9.55243,-0.139l15.35285,-0.00658l0.00441,-27.82434l-32.52436,-46.6296c-6.61893,0.36457 -13.56442,0.16958 -20.16956,0.80075c2.52747,4.08818 6.41651,9.4528 9.21741,13.56196l18.17516,26.71113c2.08476,-0.23156 5.04937,-0.59195 6.92583,0.42687c5.15322,2.79736 6.7146,8.27521 3.97237,13.29835c-1.06762,1.98703 -2.89743,3.43034 -5.04996,3.98332c-2.44298,0.66174 -5.04436,0.27379 -7.20012,-1.07305c-2.07595,-1.29563 -3.55048,-3.39318 -4.08883,-5.81607c-0.65071,-3.0406 0.2526,-5.39668 1.86708,-7.84895c-9.54422,-13.98855 -19.49331,-28.22245 -28.78171,-42.3506c-0.67008,0.13841 -1.33662,0.29386 -1.99938,0.46582c-5.20984,1.37801 -8.29269,5.08843 -10.92782,9.60949l-0.066,4.9725c1.58161,1.44361 10.29118,13.47688 11.87131,15.75928c6.35666,9.18111 14.2647,18.81337 20.39195,28.03192c-0.43187,20.30671 0.00088,40.83508 -0.15697,61.16067c-0.06104,7.89508 0.13114,15.91926 -0.10034,23.79636c2.11791,1.32888 3.83271,3.30422 4.44413,5.81219c0.51254,2.17126 0.10798,4.46235 -1.11514,6.31395c-1.32051,2.02865 -3.37211,3.44293 -5.7083,3.9354c-11.7038,2.42829 -14.99346,-15.56248 -2.21883,-17.0744l-0.01027,-83.02183l-27.37615,-37.32986l-0.01086,145.99158c2.23555,1.52779 15.53447,20.08624 18.19836,23.69002c-0.02612,6.12613 0.07158,12.25526 0.0443,18.38139c-0.01028,2.3426 0.18745,4.58037 -2.38753,5.21246c-0.59585,-0.13779 -0.85197,-0.15877 -1.28353,-0.63807c-2.00026,-2.21978 -1.09783,-17.63546 -1.0773,-21.56278c-4.42388,-5.53599 -9.21417,-12.3032 -13.48139,-18.04799zM854.00496,508.07647c2.62926,-0.12702 4.66531,-2.39623 4.56001,-5.08154c-0.10502,-2.68533 -2.31272,-4.78107 -4.94316,-4.69301c-2.65802,0.08897 -4.73633,2.37136 -4.62983,5.08423c0.1065,2.71319 2.35672,4.81882 5.01298,4.69031zM921.23734,477.3026c1.62561,-0.4083 2.89888,-1.69703 3.31256,-3.35304c0.41397,-1.65629 -0.09889,-3.41028 -1.3343,-4.5639c-1.23513,-1.15334 -2.99188,-1.5185 -4.57056,-0.94991c-2.28132,0.82171 -3.52994,3.32668 -2.83785,5.69356c0.69179,2.36717 3.08107,3.76315 5.43016,3.1733zM915.12125,503.58778c2.94494,-0.78847 5.05434,-3.05348 4.06009,-6.30138c-0.35762,-1.15691 -1.15181,-2.12063 -2.20681,-2.67781c-0.65277,-0.3376 -1.12248,-0.44934 -1.82893,-0.56169c-5.57039,1.09072 -5.57451,8.17098 -0.02436,9.5409zM856.03134,422.53109c2.3089,-0.60063 3.71889,-2.98188 3.16674,-5.34876c-0.55213,-2.36688 -2.86162,-3.84343 -5.18813,-3.3168c-1.53731,0.3481 -2.77185,1.5152 -3.22984,3.05378c-0.45769,1.53857 -0.06805,3.20955 1.0201,4.37247c1.08785,1.16262 2.70496,1.63624 4.23113,1.23932zM835.22074,525.3971c2.10823,-0.57786 3.3812,-2.76591 2.87043,-4.93267c-0.51077,-2.16676 -2.61959,-3.52349 -4.75422,-3.05887c-1.43141,0.31186 -2.58468,1.39208 -3.01154,2.82132c-0.42716,1.42954 -0.06073,2.98309 0.95641,4.05734c1.01745,1.07454 2.52542,1.50051 3.93893,1.11289z" id="CompoundPath-1-1-1-1-1-1-1-1-1-3" fill="#fb1e4e"/><path d="M1005.82165,518.56399c1.76615,0.25733 3.46776,1.24229 3.07756,3.309c-1.66934,8.8405 -2.32944,18.34186 -4.12492,27.10147c3.32399,-0.05003 12.83831,-0.9658 15.79557,1.21833c0.48113,0.35348 0.68063,2.3486 0.3726,2.93575c-3.02768,5.80858 -6.50423,11.48537 -9.80768,17.15916l-9.81649,16.89256c-1.59305,2.74102 -4.8349,9.29555 -7.32277,10.58966c-2.1094,-0.41939 -3.53816,-1.04248 -3.39734,-3.56482c0.17016,-3.03161 0.7804,-6.09019 1.2674,-9.09483c0.95347,-5.94339 1.9451,-11.87781 2.97781,-17.80921c-2.70202,-0.11083 -5.50673,-0.05095 -8.15889,-0.18874c-2.2385,-0.11384 -7.39904,0.39843 -8.01807,-2.38753c-0.15843,-0.71597 -0.18776,-1.56972 0.1555,-2.21978c2.37344,-4.50248 5.11947,-9.0469 7.66602,-13.42536l15.70168,-27.07839c1.35247,-2.31896 1.26446,-2.82642 3.63204,-3.43724zM986.74608,560.87534c20.39283,0.61111 14.314,-0.29356 12.36889,17.87513c4.50045,-7.87859 9.05663,-15.72724 13.66857,-23.54292c-1.72508,0.00299 -5.37178,-0.19173 -6.8915,0.04494c-12.97325,2.01607 -4.96105,-11.08245 -5.71505,-17.62529c-4.42415,7.78182 -8.90115,15.53132 -13.43092,23.24814z" id="CompoundPath-1-1-1-1-1-1-1-1-1-4" fill="#fb1e4e"/><path d="M1052.84749,542.43794c2.45852,0.26902 3.63498,1.57153 3.64379,4.2257c0.04987,18.42364 1.30555,36.87394 0.88012,55.30923c-0.39313,6.16806 0.03226,25.90949 -5.62997,29.57918c-12.60652,8.17218 -32.98172,6.03626 -47.41601,5.8745c-3.36213,-0.49428 -14.71593,0.16177 -17.2742,-1.77941c-10.50594,-7.95648 -19.77085,-20.8079 -27.73025,-31.27772c-1.15006,-1.46187 -2.98955,-3.5798 -1.95979,-5.50903c0.43421,-0.8208 1.20579,-1.40198 2.10353,-1.58471c3.04528,-0.65006 7.2406,6.88105 9.10358,9.13978c6.39567,7.74978 13.71549,18.2406 21.70422,24.12708c12.16059,1.36602 49.04429,3.07054 58.40017,-4.4995c2.79884,-9.20268 2.58468,-28.08735 2.46732,-38.02396c-0.12908,-9.02892 -0.30218,-18.05787 -0.5222,-27.08379c-0.14376,-4.91888 -0.73053,-11.39552 -0.08216,-16.3048c0.13789,-1.04938 1.46398,-1.72189 2.31184,-2.19252z" id="Path-1-1-1-1-1-1-1-1-1-10" fill="#fb1e4e"/><path d="M1050.07796,467.62811c2.01844,-1.43882 4.08385,-2.81113 6.19032,-4.11456l0.16723,19.66924c0.04108,3.71523 0.18484,7.46729 -0.044,11.17172c-0.13495,2.15029 -1.07964,3.13168 -3.17145,3.4576c-0.97695,-0.22467 -1.85415,-0.69201 -2.3793,-1.61377c-1.02098,-1.79261 -0.66598,-24.3751 -0.7628,-28.57024z" id="Path-1-1-1-1-1-1-1-1-1-11" fill="#fb1e4e"/></g></g></g></g></g></g></svg>