<?xml version="1.0" encoding="UTF-8" standalone="no"?>
<svg xmlns="http://www.w3.org/2000/svg" xmlns:xlink="http://www.w3.org/1999/xlink" version="1.1" width="700" height="700" viewBox="587.5 152 700 700"><g id="document" fill="#ffffff" fill-rule="nonzero" font-family="none" font-weight="none" font-size="none"><rect x="587.5" y="108.57143" transform="scale(1,1.4)" width="700" height="500" id="Shape-1-1"/></g><g fill="none" fill-rule="nonzero" stroke="none" stroke-width="1" stroke-linecap="butt" stroke-linejoin="miter" stroke-miterlimit="10" font-family="none" font-weight="none" font-size="none"><g id="stage"><g id="layer1-1"><g id="Group-1"><g id="Group-1-1"><g id="Group-1-2"><path d="M932.15376,276.4631c4.37776,-0.35659 13.93462,-0.1598 18.43609,0.04163c33.68657,1.6933 66.57183,10.89172 96.24616,26.92281c43.78328,23.71591 78.50736,61.22224 98.77947,106.69375c3.20812,7.19163 6.41058,15.14471 8.70772,22.71608c6.00291,-6.43549 12.0508,-12.65511 17.26083,-19.78209c7.33002,-10.0278 17.24396,-30.13511 15.22518,-42.64266c-0.83507,-5.16667 -3.44428,-9.40519 -7.70396,-12.45751c-11.86523,-8.50571 -31.26855,-6.41554 -44.78422,-3.86074c-3.81543,0.72126 -7.68992,2.109 -11.50254,2.59893c-1.36084,0.17484 -2.79479,-0.18243 -3.83512,-1.09596c-0.75071,-0.65971 -1.29899,-1.62693 -1.29899,-2.64503c0,-0.74432 0.35989,-1.45716 0.88286,-1.97379c3.67204,-3.63557 30.05109,-6.25475 35.88249,-6.25644c11.35913,-0.00309 24.18315,1.96086 32.51411,10.3859c5.37873,5.44212 7.63649,12.45413 7.54088,20.01623c-0.06749,5.29625 -1.87537,9.8344 -3.51739,14.75597c-1.58297,4.73633 -3.1828,9.52578 -5.34778,14.03385c-6.72269,13.99674 -17.92718,25.8398 -28.92642,36.57537c1.32429,5.01263 2.38709,9.31551 3.47522,14.3793c4.42838,-3.84218 8.25224,-6.88187 12.59346,-11.06473c11.28322,-11.0889 20.80071,-23.84156 28.21789,-37.81356c7.45655,-14.01165 13.00395,-27.9963 7.74333,-43.67648c-3.26716,-9.7394 -9.60467,-16.12121 -18.59075,-20.82437c-23.83169,-12.47409 -52.40102,-7.03168 -76.12586,2.77462c-2.01034,0.83175 -4.43118,-0.56583 -4.86418,-2.74594c-0.17995,-0.8753 0.03092,-1.78631 0.57358,-2.49493c2.16216,-2.83899 19.19805,-7.79962 23.31715,-8.76628c4.55491,-1.06139 9.15479,-1.90605 13.78841,-2.53119c18.05371,-2.3572 39.87786,0.8857 54.55195,12.31163c8.45749,6.58616 14.30577,15.46488 15.62724,26.21703c1.04594,8.54366 0.37676,17.21014 -1.97099,25.49154c-5.05538,17.99298 -20.98064,40.51059 -33.84684,53.93421c-6.41622,6.69578 -13.87556,11.78459 -19.24024,18.6375c0.23056,1.08669 0.43581,2.17871 0.61295,3.27522c9.01701,58.83244 -5.63739,118.84207 -40.76073,166.89957c-29.3538,40.10275 -71.09017,69.43703 -118.77321,83.47734c-8.49124,2.53541 -17.77535,4.3934 -26.42404,6.42566c-1.85288,0.43569 -4.45088,0.49471 -6.2166,0.88261c-1.99628,0.43569 -3.08721,0.95288 -5.26062,1.29581c-7.69834,1.00068 -15.46416,1.35485 -23.22154,1.0597c-6.36,-0.20801 -18.2539,-0.34856 -24.19721,-1.04003c-54.0076,-6.06306 -104.14835,-30.96741 -141.60537,-70.33369c-0.0776,0.0225 -0.15492,0.04497 -0.23225,0.06747c-32.20511,8.13466 -66.95589,8.25272 -97.28507,-6.65615c-6.99481,-3.4377 -17.99144,-19.72672 -20.14877,-27.14461c-3.13361,-10.77407 2.03706,-25.14608 7.46475,-34.61592c2.93571,-5.05676 6.19033,-9.92238 9.74414,-14.56594c8.7918,-11.65951 18.81595,-22.2745 28.81761,-32.88245c3.95067,-4.19044 8.30173,1.58645 4.71938,5.62372c-14.40727,16.23449 -48.64228,48.9896 -43.85708,72.8511c0.49331,2.46795 1.32705,4.85438 2.47733,7.09464c1.55067,3.01045 10.9145,15.91517 13.9196,17.33747c17.62577,8.33987 41.67396,12.65174 60.9589,11.07485c10.06127,-0.82359 19.07913,-2.64783 27.70054,-4.4496c-2.37643,-2.62254 -4.65527,-5.33504 -6.83179,-8.12344c-3.15019,0.80392 -6.55315,1.15527 -9.74046,1.7034c-12.73825,2.19529 -23.2747,2.0435 -36.0273,0.12367c-13.37932,-1.43635 -31.54466,-7.04404 -36.86208,-21.01128c-8.18704,-21.50319 10.87863,-47.47567 23.37311,-63.54261c1.54867,-1.9901 3.76031,-5.2198 5.98547,-6.21203c1.98166,-0.88092 4.07775,0.81515 4.70251,2.70688c-0.10432,1.61626 -1.13225,3.41803 -2.15204,4.66044c-17.05472,20.77235 -48.5023,64.22285 -3.27757,74.58935c18.23001,4.17695 30.46187,3.83965 49.04052,0.53406c-27.5847,-37.13164 -42.951,-81.91167 -43.97502,-128.15084c-1.57342,-59.70325 20.73463,-117.56902 61.98094,-160.77384c32.20876,-33.97111 74.23278,-57.02833 120.19451,-65.9471c6.10863,-1.22153 12.17058,-2.66985 18.35934,-3.31562c5.63963,-0.58846 11.32259,-0.65754 16.98837,-0.77246zM766.5227,634.02312c18.51848,-4.25567 39.25536,-9.40799 57.16962,-15.62284c0.69729,-2.25431 17.97301,-24.14541 20.54119,-26.63865l0.01321,-34.13243c-3.76483,-4.45805 -7.56761,-8.88152 -11.40778,-13.27295c-1.62879,-1.88413 -4.11516,-4.5955 -5.54349,-6.54708l-0.00731,-43.28662c-2.43547,-1.02822 -4.3429,-2.11631 -5.41498,-4.72424c-1.86384,-4.5345 0.12906,-9.45436 4.9294,-10.98152c2.31821,-0.7432 4.84056,-0.49895 6.97322,0.67517c1.93246,1.06786 3.31693,2.90954 3.80502,5.06239c1.16882,5.03455 -1.55345,8.06496 -5.80468,10.07979l0.03739,27.01784c0.00113,3.9119 0.21145,10.92276 -0.18866,14.60193c3.48759,3.95743 6.94481,7.941 10.37195,11.95071c1.94905,2.26192 5.02388,5.64677 6.69008,7.99665c0.1805,11.0861 -0.45801,25.94718 0.18895,36.59758c-5.66411,7.61465 -12.4689,16.03322 -18.49572,23.42021c6.91275,-2.08285 13.85392,-4.75601 20.70961,-7.06092c2.34522,-0.78987 6.33243,-2.41173 8.58402,-3.00201c-0.01125,-17.94743 0.36581,-37.6629 -0.05146,-55.52516c-3.9279,-1.41641 -6.04256,-4.07969 -6.03496,-8.31315c0.01632,-9.01812 12.23666,-11.71573 15.68713,-3.11332c1.88409,4.70232 -0.21116,9.62781 -5.09024,11.34862c-0.07367,17.85017 0.22719,36.17426 -0.06664,53.95303c16.41956,-6.07149 32.72132,-12.45498 48.896,-19.15329c9.7129,-4.03079 19.23573,-8.34829 28.87976,-12.37908c-3.91103,-5.74543 -8.7021,-11.97713 -12.82878,-17.63542l-22.30496,-30.73017l-16.74798,-23.03905c-2.31625,-3.15493 -6.34199,-8.90147 -8.84915,-11.76716c0.17152,16.91894 -0.221,34.03097 -0.03908,51.02523c0.16196,12.20904 0.23225,24.41946 0.21087,36.6299c0.01125,5.32379 0.00872,10.6504 0.08941,15.97139c0.02923,1.92546 -0.90029,3.74409 -3.047,3.60917c-2.59939,-0.16304 -2.9143,-2.48482 -2.94242,-4.56767c-0.09925,-7.33077 -0.03205,-14.66152 -0.0762,-21.99229c-0.14396,-15.49635 -0.21002,-30.99073 -0.1985,-46.48568c-0.01827,-9.05776 0.04245,-18.11525 0.18192,-27.17187c0.07338,-4.90806 0.02419,-9.9533 0.70263,-14.81021c0.2553,-1.82707 2.09047,-2.32825 3.68638,-2.14694c5.16166,3.16954 31.54548,41.03989 36.73919,48.2166l30.87267,42.46557c3.11533,-1.4476 9.77616,-4.30906 12.47818,-5.93094c-8.65993,-11.64546 -17.01902,-24.61765 -25.5215,-36.54503l-0.05904,-19.24661c-0.00562,-3.25134 -0.26991,-6.7655 0.11528,-9.98703c0.08716,-0.72549 0.16589,-1.38097 0.70573,-1.90492c0.47235,-0.4593 0.96159,-0.71397 1.63639,-0.65691c0.58483,0.04946 1.14998,0.37639 1.49582,0.85254c1.36928,1.89425 0.80414,25.87352 0.52859,29.57516c8.42375,11.64601 16.80252,24.10661 24.99571,35.98171c2.08062,-0.93603 4.9879,-2.3555 7.11071,-2.95703c1.41708,0.64368 2.83135,1.3717 3.35712,2.96828c0.24181,0.72802 0.10683,1.42792 -0.26431,2.08567c-1.80789,3.21282 -17.03589,9.37708 -20.89068,11.1423c-24.26497,11.0861 -48.90612,21.33173 -73.87878,30.71723c-32.02937,12.17952 -64.94865,23.30214 -98.22106,31.57174c-2.86565,0.71115 -6.55062,1.53192 -9.4784,1.99011c2.07473,2.40048 5.14592,5.75666 7.00836,8.18526c9.1039,-1.99573 22.68705,-4.8853 31.47772,-7.63995c50.51244,-12.96376 99.67582,-30.70318 146.82607,-52.97935c7.91203,-3.7722 15.77906,-8.16841 23.85979,-11.38685c2.54175,-1.01192 6.5287,2.18124 3.94196,4.73913c-5.35061,5.27882 -14.10895,7.53313 -20.66575,11.20696c-8.87643,4.22194 -18.13244,8.99761 -26.92451,12.82883c-16.95773,7.1846 -34.14347,13.81825 -51.5311,19.88693c-26.29246,9.30118 -52.9732,17.46397 -79.96829,24.46586c-7.05138,1.83549 -14.03724,3.31683 -21.04729,5.03146c39.97177,40.73238 94.37245,64.10479 151.4417,65.06049c58.98033,1.16089 115.89407,-21.71962 157.65294,-63.37396c40.67637,-40.34728 63.76298,-95.12841 64.22971,-152.4115c0.07874,-9.64017 -0.53421,-22.92802 -2.09469,-32.5294c-14.51101,14.77985 -34.12801,28.71392 -51.43663,40.13732c-17.88501,11.68143 -36.07369,22.89259 -54.54633,33.62255c-3.12658,1.83298 -15.84373,10.06828 -18.78194,10.16385c-1.23151,0.03935 -2.53612,-0.29795 -3.39931,-1.23116c-0.64387,-0.6971 -0.85756,-1.60501 -0.74508,-2.53148c0.17152,-1.38773 0.821,-2.26528 1.93442,-3.06948c4.56053,-3.29209 9.49218,-5.33306 14.35074,-7.99694c5.64583,-3.09364 11.15389,-6.51589 16.69287,-9.80067c33.30138,-19.7568 67.2635,-40.54321 94.51136,-68.33292c-0.97565,-5.60151 -2.37867,-10.67794 -3.55114,-16.20074c-4.25968,4.32509 -9.55967,8.66705 -14.25796,12.54774c-30.69214,25.35156 -64.41528,47.35171 -98.05125,68.48497l-11.12295,6.97686c-2.78074,1.75371 -5.90732,4.87434 -9.37972,1.78884c-1.81071,-1.60754 -0.31773,-4.22504 1.32711,-5.37608c4.95415,-3.46524 10.29351,-6.54681 15.46417,-9.71915c8.62901,-5.36372 17.20177,-10.81765 25.71832,-16.36041c31.98551,-20.87945 59.71136,-40.52943 88.05015,-65.89784c-16.85312,-55.48722 -55.10022,-101.98976 -106.29785,-129.24652c-25.37248,-13.60683 -53.22767,-21.96917 -81.90103,-24.58902c-5.33936,-0.51003 -16.40327,-1.17365 -21.97599,-0.89332c-9.85096,0.22381 -18.90704,0.63744 -28.74,2.01037c-48.59431,6.87794 -93.44488,29.94907 -127.29228,65.47879c-40.22033,41.99248 -61.92077,98.3525 -60.24445,156.46703c1.15926,45.74277 16.74768,89.94936 44.53876,126.30521zM861.5514,538.57963c-1.41737,0.06971 -2.68681,0.89835 -3.32086,2.16775c-0.63403,1.26911 -0.53366,2.78164 0.26204,3.95602c0.79599,1.17467 2.16358,1.82876 3.57784,1.71098c2.13575,-0.17764 3.73473,-2.03452 3.59302,-4.17246c-0.14142,-2.13796 -1.97155,-3.76769 -4.11206,-3.66229zM830.87247,490.13843c1.90321,-0.72015 2.91851,-2.79513 2.31934,-4.73942c-0.59944,-1.944 -2.60697,-3.08775 -4.58554,-2.61215c-1.39543,0.33561 -2.48889,1.41837 -2.83809,2.81003c-0.34893,1.39166 0.10432,2.86231 1.1764,3.81604c1.07208,0.95401 2.58561,1.23369 3.92791,0.72548z" id="CompoundPath-1" fill="#fb1e4e"/><path d="M967.32209,407.67189c-3.99537,-2.40724 -7.84174,-5.42049 -11.62062,-8.16614c-1.69825,-1.23454 -4.68142,-3.29603 -4.90073,-5.56526c-0.14058,-1.46025 0.76196,-3.0394 1.63357,-4.15307c5.7105,-7.30996 40.98004,-26.22994 51.2623,-32.2531c4.2681,-2.50027 10.88115,-7.17841 15.05365,-8.99676c0.9419,-0.40982 2.2156,-0.47221 3.23342,-0.60573c16.59164,10.42357 32.97804,21.20608 49.46566,31.79604c3.43304,2.20541 17.31142,10.48541 19.30208,12.68013c0.36832,0.4073 0.64949,1.16651 0.57358,1.71547c-0.30648,2.20681 -14.92714,11.54453 -17.60947,13.36766c2.87634,2.03085 15.19987,9.90552 15.8606,12.74873c0.17995,0.78031 -0.06749,1.54598 -0.49767,2.19838c-2.61484,3.95631 -11.14264,8.69516 -15.22235,11.16929c3.54269,2.04181 15.96183,9.88612 17.02464,13.17681c-0.22774,2.31027 -9.65525,8.04303 -11.98613,9.63428c-7.614,5.18354 -15.27297,10.30579 -22.97131,15.36677c-2.01878,1.223 -3.9982,2.51068 -5.93262,3.86075c-6.25034,4.05272 -23.42398,15.5014 -30.14105,17.07268c-7.02354,-1.79221 -23.17095,-12.30292 -29.97236,-16.61367c-2.00191,-1.35427 -3.90821,-2.52782 -5.96636,-3.78203c-4.86981,-3.13217 -32.92461,-20.99639 -34.40355,-23.16189c-0.48922,-0.71902 -0.74509,-2.04913 -0.4808,-2.88817c0.87444,-2.75465 15.01431,-11.21903 18.18866,-13.22543c-2.69358,-1.73459 -5.5643,-3.57066 -8.28035,-5.23947c-10.54374,-6.47821 -11.22135,-6.13024 -1.42832,-13.07449zM989.31775,443.31405l-5.89887,-4.27956l-0.04499,-11.31489c-2.68795,1.76805 -5.55305,3.7244 -8.29722,5.36229c-1.29337,-0.70526 -2.67109,-1.72757 -3.89697,-2.58488c3.66642,-2.67651 8.30847,-5.66194 12.2195,-8.0332l0.01125,-3.72187c-4.0966,-2.82521 -8.21569,-5.6209 -12.35446,-8.38738c-1.22308,-0.90202 -2.49675,-1.79445 -3.73388,-2.68269l-9.81553,7.06176c-9.79303,6.94427 -9.11542,6.59628 1.42832,13.07449c2.71607,1.66881 5.58677,3.50488 8.28035,5.23947c-3.17437,2.0064 -17.31424,10.47079 -18.18866,13.22544c-0.26431,0.83904 -0.00842,2.16914 0.4808,2.88816c1.47894,2.1655 29.53374,20.02972 34.40355,23.16189c2.05815,1.25421 3.96445,2.42776 5.96636,3.78203c6.80143,4.31075 22.94882,14.82146 29.97236,16.61367c6.71707,-1.57128 23.89073,-13.01996 30.14107,-17.07268c1.93442,-1.35007 3.91384,-2.63773 5.93262,-3.86075c7.69834,-5.06098 15.35732,-10.18323 22.9713,-15.36677c2.33088,-1.59123 11.7584,-7.32401 11.98614,-9.63428c-1.06281,-3.29069 -13.48195,-11.135 -17.02464,-13.17681c4.07973,-2.47413 12.60751,-7.213 15.22235,-11.16929c0.43018,-0.6524 0.67762,-1.41809 0.49767,-2.19838c-0.66074,-2.8432 -12.98428,-10.71787 -15.8606,-12.74872l-3.81825,2.67117c-4.52116,3.08466 -10.65059,6.84618 -14.83716,9.94573c0.11246,0.33899 0.24744,0.75247 0.40769,1.24043c3.60736,3.04671 10.67309,7.01229 14.34511,9.53195c-1.57735,1.09287 -2.46301,1.66207 -4.15564,2.54524c-3.32058,-2.20794 -6.66365,-4.37906 -10.03202,-6.51222c0.03937,4.21378 0.05624,8.42812 0.04779,12.64217c-1.92037,1.21796 -3.84917,2.42326 -5.78641,3.61619c-0.24743,-6.3447 -0.19399,-13.18946 -0.27273,-19.58082c-9.19977,5.667 -20.37897,13.55571 -29.61247,18.65239c-1.16684,-0.56021 -2.24932,-1.23285 -3.33745,-1.92939c-8.82019,-5.64115 -17.86533,-11.13471 -26.44935,-17.1289l-0.9419,0.73335zM1085.41206,393.94442l-64.5896,-41.51548c-7.87266,4.87912 -15.83531,9.61233 -23.88229,14.19743c-8.68805,4.98649 -36.34922,19.80822 -41.76167,26.89557c4.76297,3.7604 10.84459,7.90727 15.84093,11.4366c8.2185,-6.32476 39.54327,-30.29194 48.32411,-28.85897c9.46406,1.5443 41.84603,22.39706 50.54251,28.80022c5.09192,-3.76827 10.26821,-7.42127 15.52603,-10.95538zM990.22591,418.07325c7.92046,-5.49666 16.198,-10.60768 24.28437,-15.85896c1.60827,-1.04396 3.33183,-2.2026 5.1088,-2.91037c3.1828,1.56199 7.88673,4.66746 10.98517,6.60301l19.33865,12.19975c4.61957,-2.67062 11.32539,-7.48704 16.11366,-10.59698c-9.74242,-6.48608 -36.60791,-24.35482 -47.26973,-27.21433c-12.675,3.22407 -32.8965,19.07262 -43.89574,27.24187c4.85294,3.60552 10.34695,7.02606 15.33484,10.53601zM1019.9368,437.15738c8.3619,-5.28304 17.56166,-11.3652 26.0079,-16.37812c-7.99076,-5.468 -17.99466,-11.3028 -26.3172,-16.54565c-8.1229,5.53658 -17.10898,11.01554 -25.40902,16.45513c8.51373,5.58071 17.0865,11.07062 25.71832,16.46862z" id="CompoundPath-1-1" fill="#c0f8dd"/><path d="M1050.01601,423.21939c1.4452,0.9377 4.35527,2.70012 5.60927,3.69406c0.03937,4.21378 0.05624,8.42813 0.04779,12.64218c-1.92037,1.21796 -3.84917,2.42326 -5.78641,3.61619c-0.24743,-6.3447 -0.19399,-13.18946 -0.27273,-19.58082z" id="Path-1" fill="#fb1e4e"/><path d="M989.27276,423.91845l0.04499,19.3956l-5.89887,-4.27956l-0.04499,-11.31489c1.91755,-1.34078 3.88571,-2.60878 5.89887,-3.80115z" id="Path-1-1" fill="#fb1e4e"/><path d="M1050.01601,423.21939c1.65889,-1.0715 3.34025,-2.10899 5.04413,-3.11136c0.11246,0.33899 0.24744,0.75248 0.40769,1.24044c3.60736,3.04671 10.67309,7.01229 14.34511,9.53195c-1.57735,1.09287 -2.46301,1.66207 -4.15564,2.54524c-3.32058,-2.20794 -6.66365,-4.37907 -10.03202,-6.51223c-1.254,-0.99392 -4.16407,-2.75634 -5.60927,-3.69406z" id="Path-1-2" fill="#9ce8d5"/><path d="M983.39918,422.46383l2.92414,-1.82482l3.89134,2.54608l-0.9419,0.73336c-2.01316,1.19237 -3.98132,2.46037 -5.89887,3.80115c-2.68795,1.76805 -5.55305,3.7244 -8.29722,5.36229c-1.29337,-0.70526 -2.67109,-1.72757 -3.89697,-2.58488c3.66642,-2.67651 8.30847,-5.66194 12.2195,-8.0332z" id="Path-1-3" fill="#9ce8d5"/><path d="M1073.71553,407.49113c2.87634,2.03085 15.19987,9.90552 15.8606,12.74873c0.17995,0.78031 -0.06749,1.54598 -0.49767,2.19838c-2.61484,3.95631 -11.14264,8.69516 -15.22235,11.16929c3.54269,2.04181 15.96183,9.88612 17.02464,13.17681c-0.22774,2.31027 -9.65525,8.04303 -11.98613,9.63428c-7.614,5.18354 -15.27297,10.30579 -22.97131,15.36677c-2.01878,1.223 -3.9982,2.51068 -5.93262,3.86075c-6.25034,4.05272 -23.42398,15.5014 -30.14105,17.07268c-7.02354,-1.79221 -23.17095,-12.30292 -29.97236,-16.61367c-2.00191,-1.35427 -3.90821,-2.52782 -5.96636,-3.78203c-4.86981,-3.13217 -32.92461,-20.99639 -34.40355,-23.16189c-0.48922,-0.71902 -0.74509,-2.04913 -0.4808,-2.88817c0.87444,-2.75465 15.01431,-11.21903 18.18866,-13.22543c-2.69358,-1.73459 -5.5643,-3.57066 -8.28035,-5.23947c-10.54374,-6.47821 -11.22135,-6.13024 -1.42832,-13.07449l9.81553,-7.06176c1.23713,0.88824 2.51083,1.78069 3.73389,2.68269c-4.86699,3.64402 -9.77337,7.23098 -14.72189,10.76058c4.98509,2.86118 10.06577,6.18561 14.84561,9.38185c1.22588,0.85731 2.60362,1.87962 3.89697,2.58488l8.34221,5.9526l5.89887,4.27956c8.03011,5.832 21.33211,16.26652 30.48127,18.5526c1.47612,-1.06139 3.25872,-2.18517 4.82202,-3.11669c8.39845,-4.99576 16.71536,-10.90254 25.26564,-15.57814c1.93724,-1.19293 3.86604,-2.39823 5.78641,-3.61619l9.98423,-6.12995c1.69263,-0.88317 2.57829,-1.45237 4.15564,-2.54524c4.32152,-2.13796 10.97675,-6.97603 14.69939,-10.0694c-4.53241,-3.66172 -9.82958,-7.28804 -14.61505,-10.64871zM989.52862,448.89222l0.12933,14.91563c0.02812,1.996 0.23619,5.18859 0.13778,7.0179c6.82672,4.82009 22.63672,14.70706 30.14667,17.65341c10.93738,-4.73098 20.20465,-12.64838 30.07077,-18.01152l-0.16308,-22.20562c-6.60179,3.91554 -13.05456,8.16532 -19.59731,12.16827c-2.61766,1.60221 -6.90826,4.53843 -9.48375,5.75441c-10.42003,-1.2351 -22.60861,-11.03297 -31.24043,-17.2925zM1069.68924,436.07211c-3.61861,2.2085 -10.81648,6.29778 -13.9993,8.59257c0.07029,6.91053 -0.03374,15.03845 0.25024,21.88124c3.4921,-2.61187 7.72083,-5.27797 11.37038,-7.74901c5.96074,-4.08447 11.94959,-8.12426 17.97217,-12.11908c-4.59425,-3.49532 -10.74618,-7.41369 -15.59349,-10.6057zM971.0644,435.71905c-5.64864,3.90936 -11.43505,7.72203 -17.1343,11.57435l29.84585,19.6986l-0.30366,-22.46704c-2.65703,-2.26838 -9.36003,-6.71575 -12.40789,-8.80591z" id="CompoundPath-1-2" fill="#9ce8d5"/><path d="M1055.68994,444.66468c0.07029,6.91053 -0.03374,15.03845 0.25024,21.88124c-1.9035,1.26826 -3.99819,2.73469 -5.92699,3.92172l-0.16308,-22.20562c1.52393,-1.1131 4.22593,-2.73358 5.83983,-3.59736z" id="Path-1-4" fill="#fb1e4e"/><path d="M983.47229,444.52496c1.72355,1.04676 4.46213,3.04951 6.05633,4.36726l0.12933,14.91563c0.02812,1.996 0.23619,5.18859 0.13778,7.0179c-1.59985,-0.78367 -4.45088,-2.78361 -6.01978,-3.83375z" id="Path-1-5" fill="#fb1e4e"/><path d="M1073.71553,407.49113c2.87634,2.03085 15.19987,9.90552 15.8606,12.74873c0.17995,0.78031 -0.06749,1.54598 -0.49767,2.19838c-2.61484,3.95631 -11.14264,8.69516 -15.22235,11.16929c-1.60827,0.78451 -2.66265,1.48498 -4.16689,2.46456c-3.61861,2.2085 -10.81648,6.29778 -13.9993,8.59257c-1.6139,0.86378 -4.31592,2.48424 -5.83983,3.59736c-6.60179,3.91554 -13.05456,8.16532 -19.59731,12.16827c-2.61766,1.60221 -6.90826,4.53843 -9.48375,5.75441c-10.42003,-1.2351 -22.60861,-11.03297 -31.24043,-17.2925c-1.59422,-1.31775 -4.33277,-3.32048 -6.05632,-4.36726c-2.65703,-2.26838 -9.36004,-6.71575 -12.4079,-8.80591c-0.98127,-0.79547 -2.75262,-1.92572 -3.84917,-2.67146c-2.69358,-1.73459 -5.56429,-3.57066 -8.28034,-5.23947c-10.54374,-6.47821 -11.22136,-6.13024 -1.42833,-13.07449l9.81553,-7.06176c1.23713,0.88824 2.51083,1.78069 3.73389,2.68269c-4.86699,3.64402 -9.77337,7.23098 -14.72189,10.76058c4.98509,2.86118 10.06577,6.18561 14.84561,9.38185c1.22588,0.85731 2.60362,1.87962 3.89697,2.58488l8.34221,5.9526l5.89887,4.27956c8.03011,5.832 21.33211,16.26653 30.48127,18.55261c1.47612,-1.06139 3.25872,-2.18518 4.82202,-3.1167c8.39845,-4.99576 16.71536,-10.90254 25.26564,-15.57814c1.93724,-1.19293 3.86604,-2.39823 5.78641,-3.61619l9.98423,-6.12995c1.69263,-0.88317 2.57829,-1.45237 4.15564,-2.54524c4.32152,-2.13796 10.97675,-6.97602 14.69939,-10.06939c-4.53241,-3.66172 -9.82958,-7.28805 -14.61505,-10.64872z" id="Path-1-6" fill="#e2c1f8"/><path d="M983.41043,418.74196c0.97565,0.6108 1.99066,1.21711 2.91289,1.89705l-2.92414,1.82482z" id="Path-1-7" fill="#fb1e4e"/><path d="M971.01943,404.95854c8.2185,-6.32476 39.54327,-30.29194 48.32411,-28.85897c9.46406,1.5443 41.84603,22.39706 50.54251,28.80022l-3.82949,2.60989c-9.74242,-6.48608 -36.60791,-24.35482 -47.26973,-27.21433c-12.675,3.22407 -32.8965,19.07262 -43.89574,27.24187c-1.14997,-0.62429 -2.75543,-1.80457 -3.87166,-2.5787z" id="Path-1-8" fill="#e2c1f8"/><path d="M990.22591,418.07325c7.92046,-5.49666 16.198,-10.60768 24.28437,-15.85896c1.60827,-1.04396 3.33183,-2.2026 5.1088,-2.91037c3.1828,1.56199 7.88673,4.66746 10.98517,6.60301l19.33865,12.19975c-1.47612,1.09736 -2.42085,1.7405 -3.9982,2.67258c-7.99076,-5.468 -17.99466,-11.3028 -26.3172,-16.54565c-8.1229,5.53658 -17.10898,11.01554 -25.40902,16.45513z" id="Path-1-9" fill="#9ce8d5"/><path d="M816.38453,548.63244l0.03401,44.92536c0.00084,7.5472 0.01518,15.09721 -0.02588,22.64441c-0.00843,1.54036 -0.60001,3.03012 -2.2302,3.3899c-0.86459,0.19114 -1.76881,-0.00562 -2.47624,-0.53968c-1.83265,-1.38015 -1.2315,-9.84369 -1.22419,-12.10925l0.03036,-18.38592l-0.00365,-63.65309l-0.00618,-88.89979l-0.00055,-27.9578c0,-4.93167 -0.07536,-10.00137 0.12315,-14.92939c0.08267,-2.05251 2.13406,-5.00841 3.37681,-6.68398c4.68873,-6.32082 11.54809,-8.15911 19.04792,-9.13758c2.78889,-0.36373 8.19939,-0.46604 11.62342,-0.50005c10.97872,-0.10906 25.67388,-1.84112 35.31987,3.94393c1.20565,0.72295 6.49635,6.78741 7.45739,7.93256c9.62967,11.47371 17.98567,24.15048 26.80052,36.26422l70.50647,97.91426c-0.6523,-16.22831 -0.54264,-34.12935 -0.82662,-50.52743c2.05815,1.25421 3.96445,2.42776 5.96636,3.78203c0.07311,6.72501 1.73481,55.23845 -0.07873,57.19988c-0.58201,0.62936 -1.75448,0.79183 -2.5558,0.80308c-1.39458,-0.62261 -2.92132,-2.19361 -3.84637,-3.40623c-25.46526,-33.41484 -48.0795,-69.53793 -74.06295,-102.50863l-0.01096,29.76042c3.82274,5.08713 7.82178,9.91788 11.60768,15.10787c4.57711,-2.48453 9.67327,-1.39222 12.20488,3.3621c1.15279,2.17055 1.36084,4.71777 0.58201,7.04742c-3.59078,10.66474 -21.54074,5.31761 -15.84627,-7.37825c-2.01596,-2.3066 -4.63391,-5.91072 -6.55624,-8.39467c-1.9454,-2.51348 -4.98369,-6.25645 -6.58689,-8.81434c1.16909,-10.38337 -0.56598,-24.58502 0.37732,-35.39311c0.19711,-2.25909 -16.82305,-24.59938 -19.75112,-28.22286c-2.26479,-2.78417 -4.63193,-5.48317 -7.09692,-8.09193c-4.79952,-5.00336 -13.42374,-4.69107 -20.0289,-4.84004c5.23926,7.09099 26.0172,35.97048 30.20152,43.23574c0.50863,0.8829 0.26682,28.15736 -0.14874,30.29194c9.27934,13.01885 19.7455,27.83917 28.51509,41.15204c4.61733,-1.68877 9.2501,-0.87615 11.45163,4.05637c1.033,2.27203 1.09289,4.86732 0.16561,7.18461c-4.19641,10.53601 -20.82629,4.2357 -14.76041,-8.23979c-10.13099,-14.20504 -20.18832,-29.03857 -30.14978,-43.39202c-5.98239,0.27152 -13.69704,0.04413 -19.88214,0.08292l0.00309,43.43503c5.13409,1.60023 8.96049,6.57069 6.73478,12.01648c-4.59539,11.24491 -21.58881,4.67478 -16.62284,-7.17504c1.0077,-2.40499 3.15863,-3.6755 5.45181,-4.53731l-0.03627,-30.09884c-0.00449,-3.27973 -0.59944,-16.03351 1.04678,-17.94181c1.69459,-0.41066 7.0927,-0.147 9.15478,-0.13042l14.71372,-0.00618l0.00423,-26.10797l-31.17041,-43.75322c-6.34339,0.34208 -12.99975,0.15911 -19.32992,0.75135c2.42225,3.836 6.1494,8.8697 8.8337,12.72538l17.41855,25.06343c1.99797,-0.21728 4.83916,-0.55542 6.63751,0.40055c4.9387,2.6248 6.43507,7.76475 3.807,12.47803c-1.02317,1.86446 -2.7768,3.21873 -4.83973,3.73761c-2.34128,0.62092 -4.83437,0.25691 -6.90039,-1.00686c-1.98953,-1.21571 -3.40268,-3.18387 -3.91862,-5.4573c-0.62362,-2.85304 0.24208,-5.06379 1.78935,-7.36478c-9.14691,-13.12566 -18.68183,-26.48152 -27.58356,-39.73817c-0.64218,0.12987 -1.28099,0.27574 -1.91615,0.43709c-4.99296,1.29301 -7.94747,4.77455 -10.4729,9.01672l-0.06326,4.66577c1.51577,1.35456 9.86277,12.64555 11.37712,14.78716c6.09204,8.61477 13.67088,17.65285 19.54305,26.30275c-0.41389,19.05408 0.00084,38.31614 -0.15043,57.38793c-0.05849,7.40806 0.12569,14.93727 -0.09616,22.32846c2.02974,1.2469 3.67316,3.1004 4.25912,5.45366c0.4912,2.03732 0.10348,4.18708 -1.06872,5.92447c-1.26554,1.90352 -3.23173,3.23054 -5.47067,3.69264c-11.21658,2.2785 -14.3693,-14.60249 -2.12646,-16.02114l-0.00984,-77.90057l-26.23651,-35.02714l-0.01041,136.98597c2.14249,1.43355 14.88778,18.8472 17.44078,22.22868c-0.02503,5.74824 0.0686,11.49929 0.04246,17.24753c-0.00985,2.19809 0.17965,4.29782 -2.28814,4.89092c-0.57105,-0.12929 -0.8165,-0.14897 -1.2301,-0.59871c-1.91699,-2.08285 -1.05212,-16.5476 -1.03245,-20.23266c-4.23972,-5.1945 -8.83059,-11.54427 -12.92017,-16.93468zM862.08,513.59939c2.51981,-0.11918 4.4711,-2.24842 4.37018,-4.76808c-0.10065,-2.51968 -2.21645,-4.48615 -4.73739,-4.40352c-2.54737,0.08348 -4.53915,2.22508 -4.43709,4.77061c0.10206,2.54582 2.25862,4.52157 4.8043,4.40099zM926.51357,484.72383c1.55794,-0.38312 2.7782,-1.59235 3.17466,-3.14621c0.39673,-1.55412 -0.09477,-3.19991 -1.27875,-4.28237c-1.18371,-1.08219 -2.86734,-1.42483 -4.38029,-0.89132c-2.18635,0.77102 -3.383,3.12147 -2.71972,5.34235c0.66299,2.22115 2.95281,3.53102 5.20411,2.97755zM920.65208,509.38758c2.82235,-0.73983 4.84393,-2.86511 3.89107,-5.91267c-0.34273,-1.08555 -1.10386,-1.98982 -2.11494,-2.51263c-0.6256,-0.31678 -1.07575,-0.42162 -1.75279,-0.52704c-5.33851,1.02344 -5.34245,7.66694 -0.02334,8.95236zM864.02202,433.33094c2.21278,-0.56358 3.56408,-2.79794 3.03491,-5.01882c-0.52915,-2.22088 -2.7425,-3.60634 -4.97215,-3.1122c-1.47332,0.32663 -2.65646,1.42174 -3.09538,2.8654c-0.43863,1.44366 -0.06522,3.01157 0.97763,4.10275c1.04256,1.09091 2.59236,1.5353 4.05499,1.16287zM844.07775,529.85158c2.02047,-0.54222 3.24044,-2.59529 2.75093,-4.62839c-0.48951,-2.0331 -2.51054,-3.30614 -4.55631,-2.87018c-1.37182,0.29262 -2.47708,1.30621 -2.88617,2.64728c-0.40938,1.34136 -0.0582,2.79907 0.9166,3.80706c0.97509,1.00826 2.42029,1.40795 3.77495,1.04424z" id="CompoundPath-1-3" fill="#fb1e4e"/><path d="M1007.57672,523.43997c1.69263,0.24145 3.3234,1.16567 2.94944,3.10489c-1.59985,8.29517 -2.23248,17.21042 -3.95321,25.42969c3.18562,-0.04695 12.30387,-0.90622 15.13802,1.14318c0.4611,0.33168 0.6523,2.20372 0.35709,2.75465c-2.90164,5.45028 -6.23347,10.77689 -9.3994,16.10068l-9.40784,15.85053c-1.52673,2.57194 -4.63362,8.72214 -7.01792,9.93643c-2.02158,-0.39352 -3.39087,-0.97818 -3.25591,-3.34493c0.16307,-2.8446 0.74791,-5.71451 1.21464,-8.53381c0.91378,-5.57677 1.86412,-11.14512 2.85384,-16.71064c-2.58954,-0.10399 -5.27749,-0.0478 -7.81924,-0.17709c-2.14531,-0.10682 -7.09103,0.37385 -7.68429,-2.24026c-0.15183,-0.6718 -0.17994,-1.47289 0.14903,-2.08285c2.27464,-4.22474 4.90635,-8.48884 7.34689,-12.59721l15.04803,-25.40804c1.29617,-2.17591 1.21183,-2.65207 3.48085,-3.22521zM989.29525,563.14132c19.5439,0.57341 13.71812,-0.27545 11.85399,16.77249c4.3131,-7.39259 8.67961,-14.75709 13.09956,-22.09066c-1.65326,0.0028 -5.14816,-0.17989 -6.60461,0.04217c-12.43319,1.89171 -4.75453,-10.39882 -5.47714,-16.53806c-4.23998,7.3018 -8.5306,14.57326 -12.8718,21.81406z" id="CompoundPath-1-4" fill="#fb1e4e"/><path d="M1052.64492,545.84124c2.35618,0.25242 3.48365,1.47459 3.4921,3.96503c0.04779,17.28716 1.2512,34.59934 0.84349,51.89744c-0.37677,5.78758 0.03092,24.31125 -5.3956,27.75457c-12.08172,7.66807 -31.60874,5.66391 -45.44214,5.51212c-3.22217,-0.46379 -14.10332,0.15179 -16.55509,-1.66965c-10.06859,-7.46568 -18.94782,-19.52434 -26.57587,-29.34833c-1.10218,-1.3717 -2.86509,-3.35898 -1.8782,-5.1692c0.41613,-0.77017 1.15559,-1.31549 2.01596,-1.48695c2.91851,-0.60996 6.93918,6.45658 8.7246,8.57598c6.12943,7.27173 13.14453,17.11542 20.8007,22.63879c11.65436,1.28176 47.00262,2.88113 55.96903,-4.22195c2.68233,-8.635 2.47709,-26.35475 2.36461,-35.67842c-0.12371,-8.47197 -0.2896,-16.94395 -0.50047,-25.41311c-0.13778,-4.61546 -0.70012,-10.69258 -0.07874,-15.29902c0.13215,-0.98465 1.40303,-1.61568 2.2156,-2.05728z" id="Path-1-10" fill="#fb1e4e"/><path d="M1049.99069,475.64612c1.93442,-1.35007 3.91384,-2.63773 5.93262,-3.86075l0.16027,18.45593c0.03937,3.48605 0.17714,7.00666 -0.04217,10.48258c-0.12933,2.01765 -1.03469,2.9385 -3.03942,3.24432c-0.93628,-0.21081 -1.77697,-0.64931 -2.28026,-1.51422c-0.97847,-1.68204 -0.63825,-22.87151 -0.73104,-26.80786z" id="Path-1-11" fill="#fb1e4e"/></g></g></g></g></g></g></svg>